<!-- Hand-drawn after a supplied geometric reconstruction: the dharmachakra wheel in orange on a black disc, on a burnt-orange field. Modern recreation of the Gupta wheel device. -->
<svg xmlns="http://www.w3.org/2000/svg" viewBox="0 0 900 600">
  <rect width="900" height="600" fill="#c76c05"/>
  <circle cx="450" cy="300" r="192" fill="#111111"/>
  <g fill="#c76c05">
    <g id="tabs">
      <rect x="432" y="96" width="36" height="64" rx="6"/>
      <rect x="432" y="440" width="36" height="64" rx="6"/>
      <rect x="246" y="282" width="64" height="36" rx="6"/>
      <rect x="590" y="282" width="64" height="36" rx="6"/>
      <rect x="432" y="96" width="36" height="64" rx="6" transform="rotate(45 450 300)"/>
      <rect x="432" y="96" width="36" height="64" rx="6" transform="rotate(135 450 300)"/>
      <rect x="432" y="440" width="36" height="64" rx="6" transform="rotate(45 450 300)"/>
      <rect x="432" y="440" width="36" height="64" rx="6" transform="rotate(135 450 300)"/>
    </g>
  </g>
  <circle cx="450" cy="300" r="150" fill="none" stroke="#c76c05" stroke-width="28"/>
  <circle cx="450" cy="300" r="98" fill="none" stroke="#c76c05" stroke-width="16"/>
  <g stroke="#c76c05" stroke-width="14">
    <path d="M450 210 L450 390"/>
    <path d="M360 300 L540 300"/>
    <path d="M386 236 L514 364"/>
    <path d="M514 236 L386 364"/>
  </g>
  <circle cx="450" cy="300" r="34" fill="#c76c05"/>
  <circle cx="450" cy="300" r="16" fill="#111111"/>
</svg>
