<svg xmlns="http://www.w3.org/2000/svg" xml:space="preserve" id="Ebene_2" width="900" height="600" x="0" y="0" viewBox="0 0 900 600"><style id="style5832" type="text/css">.st0{fill:#3f724a}.st2{fill:#fff}.st3{fill:#3f724a;stroke:#fff;stroke-width:.52756;stroke-linecap:round;stroke-linejoin:round;stroke-miterlimit:10}</style><path id="path5834" stroke-width="1.8" d="M0 0h900v600H0Z" class="st0"/><g id="g5960" transform="translate(-5.3 258.7)"><path id="path5836" fill="#eec62d" stroke-width="1.8" d="m445.2-212.8 6.3 4.6-2.5 7.4 6.3-4.5 6.3 4.6-2.4-7.5 6.3-4.5h-7.8l-2.3-7.4-2.5 7.3zm29 .5 5.8 5.3-3.3 7 6.7-3.7 5.7 5.3-1.5-7.7 6.8-3.8-7.7-1-1.5-7.5-3.3 7zm28.9 3.9 5 5.8-4 6.6 7.1-3 5 6-.5-7.8 7-3-7.4-1.8-.6-7.7-4 6.6zm28.2 7 4.3 6.5-4.8 6 7.5-2 4.3 6.4.3-7.8 7.4-2.2-7.2-2.7.2-7.7-4.8 6.1zm27.2 10.3 3.6 6.9-5.5 5.5 7.6-1.3 3.6 6.9 1.2-7.7 7.6-1.3-6.9-3.5 1.1-7.6-5.4 5.5zm25.8 13.2 2.8 7.3-6 4.9 7.7-.4 2.8 7.2 2-7.5 7.7-.4-6.4-4.3 2-7.4-6 4.8zm24.2 16.2 2 7.5-6.6 4.1 7.7.5 2 7.6 2.8-7.3 7.7.5-6-5 3-7.2-6.6 4.2zm22.2 18.8 1 7.7-7 3.3 7.6 1.4 1.1 7.7 3.7-6.9 7.6 1.4-5.3-5.6 3.6-6.8-7 3.3zm19.8 21.2.2 7.7-7.3 2.6 7.4 2.2.2 7.8 4.4-6.4 7.4 2.2-4.6-6.2 4.4-6.4-7.3 2.6zM668-98.4l-.7 7.7-7.6 1.7 7.1 3-.7 7.8 5.2-5.8 7 3-3.9-6.7 5.1-5.8-7.5 1.7zm14.5 25.1-1.5 7.7-7.7.8L680-61l-1.6 7.6 5.8-5.2 6.7 3.8-3.2-7 5.7-5.3-7.7.9zM694-46.6l-2.4 7.4-7.7-.1 6.2 4.6-2.5 7.4L694-32l6.2 4.6-2.3-7.4 6.3-4.5h-7.8zm8.5 27.8-3.2 7-7.7-1 5.6 5.3-3.2 7 6.8-3.7 5.7 5.3-1.5-7.6 6.8-3.8-7.7-1zm5.3 28.6-4 6.6-7.6-1.8 5 5.8-4 6.7 7.2-3 5 5.9-.5-7.8 7.1-3-7.5-1.7zm2 29-4.8 6-7.3-2.6 4.4 6.4-4.8 6.2 7.5-2.2L709 59l.3-7.7 7.4-2.2-7.2-2.6zm-1.3 29-5.5 5.5-7-3.4 3.7 6.8-5.5 5.6 7.7-1.3 3.6 6.8 1.2-7.6 7.6-1.3-7-3.5zm-4.7 28.7-6 4.9-6.5-4.3 2.8 7.2-6.1 5 7.8-.5 2.8 7.2 2-7.4 7.7-.4-6.4-4.2zm-7.9 28-6.5 4.1-6-5 2 7.5-6.6 4.2 7.8.5 1.9 7.5 2.9-7.2 7.7.5-6-5zm-11 26.8-7 3.4-5.3-5.6 1 7.7-7 3.4 7.7 1.4 1 7.6 3.8-6.8 7.6 1.4-5.4-5.6zm-14 25.5-7.3 2.6-4.7-6.2.2 7.7-7.4 2.6 7.5 2.3.2 7.7 4.4-6.4 7.4 2.2-4.7-6.1zm-16.8 23.7-7.6 1.7-4-6.7-.7 7.7-7.5 1.8 7.1 3-.7 7.7 5.2-5.7 7 3-3.9-6.7zM634.7 222l-7.8.9-3.1-7.1-1.6 7.5-7.7.9 6.7 3.9-1.5 7.6 5.7-5.2 6.7 3.8-3.1-7zm-21.8 19.3h-7.8l-2.3-7.4-2.4 7.3h-7.8l6.3 4.6-2.4 7.3 6.3-4.4 6.2 4.5-2.3-7.4zM589.1 258l-7.7-.9-1.5-7.6-3.2 7-7.8-.9 5.7 5.3-3.2 7 6.8-3.7 5.6 5.2-1.4-7.5zm-25.6 14-7.5-2-.6-7.7-4 6.6-7.6-1.8 5 5.9-4 6.6 7.2-3 5 6-.6-7.8zm-27 10.8-7.2-2.6.3-7.8-4.8 6.1-7.3-2.6 4.3 6.5-4.7 6 7.5-2 4.3 6.3.3-7.7zm-28 7.7-7-3.4 1.3-7.7-5.4 5.5-7-3.5 3.6 7-5.4 5.5 7.6-1.2 3.6 6.8 1.1-7.7zm-28.7 4.5-6.5-4.3 2-7.4-6 4.8-6.5-4.2 2.8 7.3-6 4.8 7.7-.3 2.8 7.2 2-7.5zm-29 1.1-6-5 2.9-7.1-6.5 4.1-6-5 1.9 7.6-6.5 4.2 7.7.5 2 7.5 2.8-7.2zm-29-2.2-5.4-5.6 3.7-6.8-7 3.4-5.3-5.6 1 7.7-7 3.4 7.7 1.4 1 7.6 3.7-6.8zm-28.5-5.4-4.8-6.2 4.5-6.4-7.3 2.6-4.7-6.2.1 7.8-7.3 2.6 7.5 2.3.1 7.7 4.5-6.4zm-27.8-8.7-4-6.7 5.2-5.8-7.6 1.7-4-6.7-.7 7.8-7.5 1.7 7 3.1-.6 7.7 5.1-5.8zM339 268l-3.2-7 5.7-5.3-7.7.9-3.2-7.1-1.6 7.6-7.6.9 6.7 3.9-1.6 7.5 5.7-5.2zm-25-14.7-2.4-7.4 6.3-4.5H310l-2.3-7.5-2.5 7.4h-7.7l6.2 4.6-2.4 7.3 6.3-4.5zm-23.3-17.5-1.5-7.6 6.8-3.8-7.7-1-1.5-7.5-3.3 7-7.7-.9 5.7 5.3-3.3 7 6.8-3.7zm-21-20-.7-7.8 7.2-3-7.5-1.7-.7-7.8-4 6.7-7.5-1.8 5 5.9-4 6.6 7-3zM251 193.4l.3-7.8 7.4-2.1-7.2-2.7.2-7.7-4.8 6.1-7.2-2.6 4.2 6.4-4.7 6.1 7.5-2.1zM235 169l1.2-7.7 7.6-1.3-6.9-3.4 1.2-7.7-5.5 5.6-7-3.5 3.6 7-5.4 5.4 7.6-1.3zm-13-26 2-7.5 7.7-.3-6.5-4.2 2-7.6-6 5-6.5-4.3 2.7 7.3-6 4.8 7.7-.4zm-10.2-27 2.8-7.2 7.8.5-6-5 2.9-7.2-6.6 4.2-6-5 1.9 7.6-6.5 4.1 7.7.5zm-7-28.2 3.8-6.9 7.6 1.4-5.4-5.6 3.7-6.9-7 3.4-5.4-5.5 1 7.6-7 3.4L204 80zm-3.5-28.9 4.4-6.4 7.4 2.3-4.7-6.2 4.4-6.4-7.3 2.6-4.7-6.2.1 7.8-7.3 2.5 7.4 2.3zm-.4-29 5.2-5.9 7 3-3.9-6.6 5.2-5.8-7.7 1.7-4-6.6-.7 7.7-7.5 1.7 7.1 3zm3-29 5.8-5.2 6.7 3.9-3.1-7 5.7-5.3-7.8.8-3.1-7-1.7 7.6-7.6.8 6.7 3.9zm6.3-28.3 6.3-4.6 6.3 4.6-2.4-7.3 6.3-4.6H219l-2.3-7.4-2.5 7.4h-7.7l6.2 4.5zm9.5-27.5 6.8-3.8 5.7 5.3-1.6-7.6 6.9-3.8-7.8-1-1.5-7.5-3.3 7-7.7-1L223-62zm12.5-26.2 7.2-3 5 5.9-.6-7.7 7.2-3-7.6-1.8-.6-7.7-4 6.5-7.6-1.7 5 5.9zm15.5-24.6 7.4-2.2 4.4 6.4.2-7.7 7.5-2.1-7.3-2.7.2-7.7-4.8 6-7.2-2.6 4.3 6.4zm18.1-22.7 7.7-1.3 3.6 6.9 1.1-7.7 7.7-1.2-7-3.5 1.1-7.7-5.4 5.5-7-3.4 3.6 6.8zm20.7-20.5 7.7-.4 2.8 7.2 2-7.4 7.7-.4-6.5-4.3 2-7.4-6 4.8-6.5-4.2 2.7 7.2zm22.8-18 7.7.5 2 7.5 2.8-7.2 7.8.5-6-5 2.8-7.2-6.6 4.1-6-4.9 2 7.5zm24.7-15.3 7.7 1.4 1 7.7 3.6-6.8 7.7 1.3-5.4-5.6 3.6-6.8-7 3.3-5.3-5.6 1 7.7zm26.3-12.3 7.5 2.2.1 7.7 4.4-6.3 7.5 2.2-4.7-6.2 4.3-6.3-7.3 2.5-4.7-6.2.2 7.8zM388-204l7.1 3-.7 7.8 5-5.8 7.2 3-4-6.7 5.1-5.8-7.5 1.7-4-6.7-.7 7.7zm28.4-6 6.7 3.8-1.6 7.6 5.7-5.2 6.8 3.8-3.2-7.1 5.7-5.2-7.7.8-3.1-7-1.6 7.5z"/><path id="path5838" stroke-width="1.8" d="m455.3 157-13.2 115V156.3L416 269l13.3-115-39 109 26.3-112.6-51 103.8 38.9-109-62.5 97.4 51-103.8-73.2 89.6 62.6-97.4-83 80.7 73.3-89.6-91.7 70.7 83-80.6-99 59.7 91.6-70.6-105.3 48 99.2-59.7-110 35.8 105.2-48-113.4 23 110-35.8-115.3 10 113.5-23-115.7-3.3L340 38.4 225.4 22l115.7 3.3-112-29.4 114.6 16.5-107.8-42L347.8 0 245.4-54l107.9 42-95.6-65.3 102.4 54-87.5-75.8 95.5 65.4-78.3-85.3 87.5 75.8-68-93.6 78.2 85.3-57-100.8 68 93.7-45-106.6 56.9 100.8-32.6-111 45 106.5L403-183l32.6 111-6.6-115.5 19.7 114 6.6-115.5 6.6 115.6 19.7-114L475-72l32.5-111-19.7 114 45-106.6-32.6 111 56.9-100.7L512-58.7l68-93.7-56.9 100.8 78.2-85.3-68 93.6 87.4-75.8-78.2 85.3L638-99.2l-87.5 75.8 102.4-54-95.6 65.3 107.9-42-102.4 54 111.9-29.5-107.9 42L681.5-4.1l-112 29.4L685.3 22 570.6 38.4l115.3 9.9-115.7 3.3 113.4 23-115.3-10 110.1 35.8-113.4-23 105.3 48-110-35.8 99 59.8-105.2-48.1 91.6 70.6-99-59.7 83 80.6L538 122l73.3 89.6-83-80.7 62.6 97.4-73.2-89.6 51 103.8-62.5-97.4 38.9 109-51-103.8L520.3 263l-38.9-109 13.2 115-26.2-112.8V272z" class="st2"/><path id="path5840" stroke-width="1.8" d="m416.4 41.4-.7-.3h-.2q-.9.3-1.2 1.2l-.3.5-.5.5-.2.5q0 .4.3.6l.8.5.4.1h.4l.3-.2a7 7 0 0 0 1-2.9z" class="st0"/><path id="path5842" d="M612.7 139.1q0-4.2-1.8-8.1l-.2-.5-.4.2-.2-.2v-.5l-.1-.6-.4-.7-.3-.5-.1-.2v-.4l-.3-.7a1 1 0 0 0-.8-.4l-.5.3q-.2.2-.2.5v.3l-.6 1-1 .5h-.1l-.8.3.8.4q.5.3.4.8 0 1-.4 2l-.5 1.2q-.1.3-1 .4h-.3q0-.7-.5-1l-.3-.3-.3.3q-.3.3-.4.8 0 .4.3.6.3.3.7.3v-.3l.4.1-.4.3-.4.7-.3-.3-.4-.5-.6-.2-.6.3-.2.7v.3q0 .9.5 1.7v.2l-.1.5h-.3l-.6.4q-.6.3-.7 1l.2.7.3.4h-.2q-.4.3-.5.8v-.4l-.1-.3h-.4a1 1 0 0 0-.8.7l-.3.6-.5.6q-.6.3-.7.9v.4l-.4-.1h-.1l-1.1.5-.8.7-.7.4a1 1 0 0 0-.5 1v.3l-.7-.3-.7.5-.8-.1h-.7q-.4.4-.5 1h-.2q-.5 0-.8.3h-.1q-.2 0-.2-.2l-.3-.3-.3.2-1.4 1.2h-.3l-1-.1a1 1 0 0 0-1 .3l-.1.6v.6l-.4-.3.3 1.3v.1q-.2 1-.6 1.7l-1.1 1.5a4 4 0 0 0-.8 2l.1.9q.2.4.2.9v2.1c0 1.3.8 2.1.7 3v.6a4 4 0 0 0 .6 2l.3.8-.4 1.2-.1.4q0 .4.3.7v.4l-1.4 2.2q-.9 1.2-1.4 2.6l-.3 1.3q-.1.4-.5.6l-1.2.6q-.4.6-.4 1.3c0 .8-1 1.7-1.2 2.9h.3l-.3.2v2.4q0 1.3.8 2.4.6 1 .7 2l.4.7.1.1-.2.3a4 4 0 0 0-.5 2.3q0 1.2.3 2.3.6 1 1 2.3.4 1.1 1.4 1.9l.1.3q.3.4.8.6l1.3.2q.6.2 1.1.7.6.6 1.5.8l.4.1a5 5 0 0 0 2.6-1q1-.8 2.2-1.3h1.7q.6-.4 1.2-.5c1-.2 1.3-1.1 1.6-1.6q.5-1 .7-2.2l1.2-2.9 1.7-5.5q1.2-3.7 2.7-7.6l2-6.2q.6-.9.7-1.9v-.3l.1-.2.6-1.3 1.3-4.3q1.4-3 2.1-6l.1-.9v-1.9a2 2 0 0 1 1-2l.2-.3v.4q-.1.2 0 .4l.3.7.3-.7.8-1.4-.1-.1v-.1h.2v-.3l-.8-.2-.2.4.3-1.2v-1.5l-.4-.8q-.2 0-.2-.2l-.1-1.7v-1l.2-.2q.3.2.5 1.1.1 1.3 1 1.6h.3q.6 0 1-.5a8 8 0 0 0 1-2.8v-.4q-.2-1.2-.7-2-.4-1.7-.3-3.6M620 3.3l.1-.3-.5.9zm-1.2.8h-.7v.2l.1.2.8.4.6-1h-.1z" class="st3"/><path id="path5844" stroke-width="1.8" d="m467.3 248.9-.6-.2h-.6l-.4-.2-1-.8v-.7l-.2-.1-.2-.1-.6-.2-.8-.1h-.5v-.7q0-.8-.9-.9h-.1l-.4.2-.2.4v.6l.1.4a1 1 0 0 1-.5-.8l.3-1 .2-1v-.1a4 4 0 0 0-.6-1.8l-1.1-1.6v-.2l-.2-.3q-.1-.2-.5-.2l-.1-.1v-.2q0-.6.3-1.2.3.3.8.3.6-.1 1-.7v-.1l.1-1.4v-.2a10 10 0 0 0-1.5-5 33 33 0 0 1-3.6-7.7l-.3-1.3-.8-2.5-.7-1.4a6 6 0 0 1-1-2l-.5-.4-.4-.3-1.1-1.2-1.6-1.7q-1-1.5-1.7-3l-.4-1.7-.3-.8-.3-.7-.1-.6v-.5q0-.8-.5-1.4l-.2-.5v-.6l-.1-1.2-.3-1.7-.1-.8-.1-.6v-.7l.1-.6v-.4l-1.3-3.7-.3-1.6V189l-.1-2.3v-.8l.3-1.4v-.6a6 6 0 0 0-1.4-3.6l-.4-.6-.7-1.1-.4-.9-.4-.8a17 17 0 0 1-2.4-4.8l-1.2-3q-.6-1.2-1-2.5c-.7-1.8-1.3-3.6-2.8-4.8q-2.4-2-2.3-6.1v-.7l.1-.7v-.4l.2-2.5.2-2.6v-.6l-.1-.5v-.1l-.2-.7v-.1l.6-.8q.4-.3.5-.6l.1-.7v-.5l.3-.6.2-.4v-.6q.1-1 .5-2l.4-1.2v-1.1q0-1.2.6-2.3.3-.7.3-1.5 0-.7.3-1a8 8 0 0 0 1.6-2.1q.4-.8.5-1.6.4-.7 1.2-.8.8 0 1-.6l.6-1.1q1.4-2.4 1.3-5.3 0-1.2-.3-2.4a8 8 0 0 0-1.3-2.7q-.6-1.2-.9-2.6l-.3-.6-.3-.6-.2-1.7-.3-.6-.2-.2v-.2l-.1-.6a1 1 0 0 1 .5-.8h.1l.3-.4.4-.2q.4 0 .4-.5v-.7a6 6 0 0 0-.8-2.8 19 19 0 0 1-1.5-3.6l-.2-1-.2-.9q-.2-.8-.9-1.4l-.6-.8a6 6 0 0 1-1-2.4l.3-.5a.5.5 0 0 0 0-.8q-.5-.3-.7-.8l-.1-.4h-.1l-.2-.5.2-1V90l-.3-.6q-.3-.4-.3-1 0-.4-.4-.5l-.2-.1-.1-.3-.2-.3-.2-1c-.4-1.4-1.7-2.6-2.9-3.6l-.4-.4q-1.2-1.2-2.1-2.7l-.5-.9q-1.8-2.3-4-4.3l-.2-.1-.2-.4-.8-1-.5-1-.5-.8-.2-.3v-1l-.8-1.4v-.5l-.8-1.7-.2-.3v-.3q-.3-.3-.4-.8v-.1q.2.3.5.3.4 0 .5-.4.4.2.6 0l.2-.3a4 4 0 0 0 .9-1.7v-.8l-.1-1q0-.8.4-1.3l.2-.1v-.7l-.4-.4-.2-.3h.1l.2-.1h.5a.5.5 0 0 0 .6-.6l-.1-1v-1l-.4-.1q-.6 0-.8-.4 0-.7.5-1.2l.4-.5.4-.5v-.2l.3-.6.3-.6q.4-.5.3-1.4l.2-1.4v-.2l-.1-.6.2-1.2q.3-1 .3-2 0-.7-.3-1.3-.1-.4-.5-.7l-.2-.5q0-.3-.2-.4h-.2l-.2-.2-.2-.3.2-.2.4-.4a.5.5 0 0 0-.3-.8h-.5q-.3 0-.4.3l-.1.2-.4-.2-.4-.3q-.4 0-.7-.2t-.4-.5l-.4-2.1a.5.5 0 0 0-.8-.3q-.3 0-.4.4h-.2l-.4-.2-.1-.3v-.1l-.2-.4-.2-.2a.5.5 0 0 0-.8.3q0 .2-.2.3l-1.1.2-1.4.2h-.7l-.4.2-.2.1h-.2l-.4.2h-.2l-.2.1-.4-.2h-.1l-.3-.1h-.2l-.4.5h-.7l-.3.3v-.1h-.8l-.1.2h-1.2l-.4-.2-.3.2h-.1l-.3.2-.3-.3-.4-.2-.2-.1-.3-.2a4 4 0 0 1-1.3-1.5 3 3 0 0 1-.6-1.6v-.3a.5.5 0 0 0-.4-.8v-.5l-.3-.6-.4-.2-.1-.1a.5.5 0 1 0-.2-.8l-.2-.3-.3-.6a7 7 0 0 0-3.6-3.3q-1-.3-2-.3h-2l-.5.2h-1.8l-.5.1h-.5l-.2.1h-.2l-.3.1h-1l-1.1.2-.4.1-2.5.4h-.8l-1.3.6-.4.3-.5.5v.1q-.3.9-1.2 1h-.1l-.2-.2-.6-.2-.2.1q-.3.2-.7.2-2.2.5-3.9 1.8l-1 .7-1.8.6-1.2.4-2 .8q-.5.6-1.2 1l-.5.1-.7-.3a4 4 0 0 0-1.8-.8l-.5-.1-.4-.1-.6-.3-.5-.2-.7-.5v-.2a.5.5 0 0 0-.9 0v.2l-.7.3-1-.3h-1.1l-.2-.1h-.4l-4.2.5h-.8q-2.3.1-4.4.8l-1.4.7q-1 .7-2.4 1-1.6.3-2.8 1.4l-.7.3h-.7a3 3 0 0 1-1.5-.5l-1.1-.5-1.4-.7q-.8-.7-1.8-1.1-1.3-.7-2.4-1.7l-1.8-2q-1-1.3-2-2.2l-.8-.5-.4-.2-1.5-1-.4-.5-.3-.3q-.3-.1-.5-.4l-.4-.3-.5-.3q-.5-.2-.9-.7l-1-1.1-4.2-2.4q0-.3-.5-.4h-.2l-1.3-.4v-.2h.2a.5.5 0 0 0 .1-1h-.1l-.3-.1-.2-.2-.1-.5-.1-.5-.2-.9-.4-.4-.7-.2-.3-.7.1-.4.1-.1v-.4l-.1-.6q0-.3.2-.4l.2-.2-.2-.7-.3-.2-.2-.1V12l-.1-.4v-.5q0-.5-.5-.5 0-.3-.3-.5l-.2-.2-.3-.3-.1-.2V9q-.1-.4-.5-.5h-.2l-.3-.5q-.3 0-.5-.3-.4-.2-.4-.5l-.4-.4h-.5q-.2-.4-.5-.5l-1-.7-.3-.4q0-.5-.5-.5l.1-.4.2-.4a.5.5 0 0 0-.4-.7l-.4.2h-.1l-.3-.2h-.7l-.3-.4-.1-.4a2 2 0 0 0-.5-1.3l-.2-.1-.7-.1-.2-.1V0q0-.3.2-.5V-1l-.3-1v-.2a.5.5 0 0 0-.7-.4l-.2.2q-.6.3-1.3.3l-.5-.3-.4-.2-.1-.1-.1-.2-.5-.2-.2-.4V-4l.1-.4-.4-.4-.6-.3-.2-.1-.2-.2-.4-.2-.1-.2-.2-.5v-.1l.2-.3V-7l-.1-.2v-.7h-.1v-.2q0-.7.2-1.2v-.5q-.3-.4-.3-.9l.3-.6.1-.1h.1q.4 0 .6-.5l.2-.2v-.7l-.5-.2q0-.5-.4-.5l-.2-.4-.7-2.4q-.6-1.5-1.7-2l-.3-.1-.4.1.1-.2.6-.3.6-.4.5-.3a13 13 0 0 0 2.3-3.5v-.2l.5-1.7.1-.3v-.2l.1-.2c0-1.7.7-3.3 1.3-4.8q.8-2 1.2-4.2l.1-1.3q0-2.1-.4-4.2 0-1-.5-2l-.4-.4q-.6-.4-.7-1.1l.2-.2.3-.6-.2-.6q0-.7.4-1l.5-.5q.4-.4.4-1a7 7 0 0 0-.9-2.4h-.7q-.7-.7-.8-1.5l-.1-.2-.3-.7-.4-.3q-.4 0-.5.3l-.3.9h-.1v-.7a18 18 0 0 1 .7-3.8q.1-1.4.9-2.5.5-.6 1.1-1t1-1.2l.2-.8.1-.4q.1-.5.6-.8.2-.1.2-.4v-.2l.2-.8.2-.2.8-1.1.6-1-.2-.6-.3-.2q1-1.5 2.6-2.7l1.2-1.2q1.5-1.6 1.6-3.4l.6-2.3.3-.6c.5-1.6 1.1-3.2 2.7-4.1 2-1.2 3-2 3.7-4l.7-1.8.3-.5v-.4l.1-.2h.2l.6-.7.3-.4.3-.3 1.8-.3 1-.2a9 9 0 0 0 4.7-2.1l2.4-2 1.6-1.3a26 26 0 0 0 3.2-3.9 7 7 0 0 0 1.5-3.2 1 1 0 0 0-.5-1.2q-.2-.3-.6-.4v-.7q.5-1 .4-2.3c0-1.9.8-2.9 2-4.4q.7-.7.6-1.6l.3-1.2q.4-1 1.3-1.8l1-1a8 8 0 0 1 2.5-2l1.5-.7 3.4-1.5c2.9-1.7 4.4-5.6 5.6-8.7l.1-.5q.2-.8.6-1.5l.3-.2h.2q.7 0 1.4-.3l.2-.1q.3 0 .4.2l.3.6a4 4 0 0 0 1.5 2q1 .8 2.6.8l2.1-.2h.4l1 .1q.5.1.8 0 1 .1 2-.8 0 .4.2.7 0 .3.3.3.4.5 1 .5.4 0 .6-.2h.2q.4 0 .6.2h.3a7 7 0 0 0 3.3-1q.4 0 .7-.3l.6-.5q.3-.7 1-1.2.5-.4 1-.5l.2.1q.2.1.4 0 .5-.1.9-.6l.4-.1 1.2.2q.5 0 1-.6c1-2.3 4.9-3 6.4-3.2l1.7-.2 2.2-.3h.5q.8 0 1.3-.4l1-.5.3.1q.4.2.6 0h.8l1.1-.2a7 7 0 0 1 2.4-.4h2.1q1.3 0 2.2.9.3.3.9.4.4 0 .7-.3l.2-.2 1-.5h1q.6-.1 1.1-.4l.3-.4v-.2l.1-.3h.1q.8 0 1.3.4.7.5 1.7.5.6 0 1-.4.3-.2.4-.5l.2-.1h.4l.6.3q.4.3 1 .3a.5.5 0 0 0 .4.7h.1l.8-.1q.5-.2 1.2-.2l1.2-.1h.3q.2 0 .3-.2l.4-.1q.2 0 .3-.2a4 4 0 0 1 2.3-1.3l1.4-.4h.2l.2.1.3.3h.5l.4.1q.3.2.4.5v.5l.2.4q.3.1.3.4l-.1.3q0 .5.4.5h.3q.8-.4 1.4-1 .2 0 .5-.4l.3-.2h.2q.4.3.4.7t-.2.6q-.6 1-1.4 1.6-1.2 1-1.2 1.7 0 1.7 1.2 2.4.6.3 1 .8t.5 1.3v.6q0 2-2.2 3.9l-.8.6-.8.5q-.8.6-.9 1.4t.5 1.2q.4.6 1 1 .3.3.5.2h.8q.4-.1.4-.5v-.6h.2l.3-.2h.3l.4.1v.5a.5.5 0 0 0 .3.8l.1.3v.4q0 .2.2.3l.2.2.1.2.1.1.5.5h.5l.2.1.1.2h.1q.7.6 1.6.9l1.2.6a4 4 0 0 0 2.4.7h.8q1-.4 2.1-.5l.7.1 1.4.4q.7 0 1.6.4l1 .7 1.4.7.9.1q.7 0 1.6.3 1 1 1 2.3a4 4 0 0 0 1.5 2.9c1.2 1 2.5 1 3.9 1.2l1.7.2a16 16 0 0 1 6.1 2.5l.8.7q1.4 1.7 3.1 1.8h.2a6 6 0 0 0 4.8-4.1v-.3l-.8-2.2-.3-2 .1-.9a6 6 0 0 1 2.2-2.5 6 6 0 0 1 3.2-1.4q.6 0 1.1-.4l1.3-.5h1.3l1.3.1q1.5.5 2.9 1.2.5.1.8.5l.1.3v.7q.1.6.8.9h.1l1.2.2q1.5.3 2.8.9l1 .1h2.3q.5.1.8.6l.2.4.2.2v.6q0 .4.3.6.3.3.6.2.7 0 1.3-.2l1-.1q1.2 0 2.5.3 2 .3 4 .9l.7.3q.2.4.6.5l.6.2h.6l.3-.1q.3 0 .4.2l.2.1.2.1.3.1h.4l.8.1q1 .2 2 .7l1.4.5h.5a5 5 0 0 0 3-1.4l1.2-1.2.2.1h.6q.5-.3.8-1l.4.1h.1q.4 0 .7-.2l1-.2h.2q.3 0 .4-.3.8 0 1.3.4l1 .4h.2l.5-.1.3-.2h.1l.4-.1h.3q.3.1.5.4l.5.7.3.1q.7.2 1.2.7t1.4.5h.4l.4-.2.7-.1h.2v.1q.2.2.5.1l1.1-.1q.6 0 1-.2 1.2-.3 2.2-1l3.8 10q-.8 1-.9 2.7l-.5 2.2a4 4 0 0 0-.3 1.8v.5q0 .5-.4.9-.3.4-.4 1h-.2l-.5-.2-.8-.5a6 6 0 0 1-1.5-1.7l-1.2-1.1q-.7-.5-.7-1.2v-.5q-.2-1.1-1.2-2.1l-.5-.6q-1-1.5-1.6-3.2a.5.5 0 0 0-.8-.1q-.3.5-.3 1.2 0 .4.3.8.6 1 1 2.1.1.9.7 1.8 1 1.7 2.4 3.2l1.2 1.2.2.2.2.2v.1q.2.2.2.5-.2.2 0 .4v.7l.2.7q1 1 1.4 2.2.2.6.7 1.2v.1l-.1.2-.2.5.1.3.3.4q.3.2.4.5l.6 1.1.6 1.1 3.7 7.2q.8 1.4 1.8 2.6l1 1q.5.2.9.7h-.8l-.5.3q-.2.5-.1 1a4 4 0 0 0 .6 2.7h.1v.1l.2.4q.5 1.6 2 2.2l.5.3q.8.6 1.5 1.4.5.8 1.2 1.2.8.4.9 1.2 0 1 .2 1.8.5 1 1.1 1.6.5.5.7 1.2h-.2a.5.5 0 0 0-.3.8v.1q.5 1 .5 2v1.4l.1 2.3.3 2q0 1.4.5 2.7a3 3 0 0 0 1.5 1.9q.9.4 1.5 1.1l1.2 1.2.4.1q0 .4.5.6l.8.4.3.4v.2a40 40 0 0 1 3 8.5l.6 2.1q.6 1 .8 2.1 0 .4.4.7l.2.1.4.5a.5.5 0 0 0 .9-.1l.1-.1h.1q.4 0 .7.3t.2.7q.1 1 1 1.7l.2.1h.2l.5-.1q.2-.2.5-.2l.6.3.5.6.2.3q.5.4 1 .5 1.4.3 2 1.6l.2.3a9 9 0 0 0 2.1 2.3l.8.6 1 .7q.5.5.6 1.3l.1.6.1.1.5.3q.3 0 .5.3l.3.4.3.4.8 1a.5.5 0 0 0 .8-.3l.4.7v.1l.1.3.3.3.5.8q.6.8.7 1.7 0 .3-.2.5a7 7 0 0 1-2.5 1.5l-.7.7a.5.5 0 0 0 .5.7l1.2-.3h.2l.4.4.1.1.1.1q1.4 1 2.4 2.7l1 1.4a5 5 0 0 0 3.5 1.7q1 0 1.8-.3 1.3-.6 2.4-1.4.7-.6 1.5-.6l1.3.1q.9.3 1.8.3t1.7-.5l1.3-1q.7-.6 1.6-.8l.2.1q.7.3 1.4.3t1.4-.3l2.2-.8.9.1q.3.2.7.2h.2a8 8 0 0 0 3-1.1l1.4-.3q1 0 1.8-.4.6-.5 1-1.1.2-.6.8-1h.5q.7 0 1.4.3t.7.8v.2l-.4 2.6v1l.2 1.7v.1q-.4.3-.4.8v1.6q0 1.3-.3 2.6a13 13 0 0 1-1.6 3q-.6.8-.7 1.8a5 5 0 0 1-1 2.2l-.5.4-.6.6-.2 1-.1.8-2.2 3.7q-.7 1.5-1 3-.1 1-.7 2.3-1.2 2.5-2.8 4.8l-1.2 2.1q-.7 1.5-1.6 2.7l-3.8 4.6v.1a38 38 0 0 1-8.8 7.9q-2.2 1.3-4 3l-1.2 1.2q-1.6 1.5-3 3.1l-1.8 2.2-1.9 2.2-1 1.5-.6.7-1 1.2-.3.2-.4.3a7 7 0 0 1-1.8 3.7l-.3.5a3 3 0 0 1-1.9 1.2h-.3q-.5 0-.5.4v.3l.2.6-.2.5-.2.2-.5.2a2 2 0 0 1-1.2.8 1.6 1.6 0 0 0-1.6 1.6l.2.8q0 .6-.4 1l-.7 1-.6 1.4-.6 1.6q-.1.3-.4.5l-.1.4q-.1 1-.7 1.8l-.6 1.2h-.2q-.5 0-.6.3l-.1.3v.2q-.3 2-1.2 3.9l-.7 1.8q-.2.4-.2 1v.6q.2.2.2.5v.4q0 .4.3.7a.5.5 0 0 0 .9-.2l.2-.6.2-.3.2-.3q.4.8.4 1.8 0 .3.4.4l.2.2q.1.2 0 .4v.6l.2.6.2.6q0 .7-.4 1.2a3 3 0 0 0-.6 1.7v1l.4.5v.1l.1.6-.2.9q-.4.9-.4 2v.2q0 .6.3 1.1.3.4.3.8v.5l.1.3v.3a.5.5 0 0 0 .6.5l.2.2q0 .5-.2.9v.2q0 .4.3.8l.3.5v.5l-.1.2.1.4.2.4v.2q0 .3.2.4l.4.3v.1l.2.3h.5q.6.1 1 .5t.6 1.1q0 .4.4.5t.4.5l-.1.4v.5l-.2 1-.1.9-.3.4q-.3.2-.3.5l.1.3q.4.5.4 1v1.6q.2.4.1.8v1l-.1.3v1.1q0 .5.2.6l.2.4v.3l-.2 1v.5l.3.2v.3l-.2 1.2q-.2.4-.2.9v.4q.3.1.4.4v1.8l-.2 1q0 .5.5.5l-.2.6.3.6q.3.1.3.5v.8l-.1.5q0 .3-.3.5v.4l-.2.2v.5l-.2.2v.5a5 5 0 0 1-1.7 2.8l-1 1.3-1.1 1.5v.2l-.2.4v.2h-.1l-.4.2q-.6.7-1.5 1-1 .5-1.7 1.2l-.1.2-.1.3v.1l-.2.1-1 .3-1.4.5-1.3.7h-.5q-.3 0-.6.3a10 10 0 0 1-2.6 1.5h-.2l-.3.4-.9.8q-.5.5-1.2.8a.5.5 0 0 0-.3.7q-.1.9-1 1.5l-.3.2q-1.2 1-1.3 2v.3h-.4l-.4.3h-.2l-.4-.1h-.2l-2.1 1.9-2 2.4-.7.6-1 .5h-.1l-.4.6v.4l-.1.5-.2.3v1.4q0 .6.2.8l.4.4.5.5q.6.6.5 1.7v1.7l.3 1.4.4 1.9q0 .2.2.3v.6q0 .5.4.5h.3v1.3q-.2.5-.2 1.1v.2l.1.7q.2.4.2.9v.2q0 .9-.6 1.9l-.5 1.4.1.4.5.7q.2.3.2.7c0 1.1-1 2.3-1.6 2.9a10 10 0 0 1-4.5 2.5q-2.8.9-5.4 2.4-1.2.6-2 1.7l-.5 1.1-.3.3a.5.5 0 0 0-.1.8l.8.8q.3.3.6 0l.1.8v1.2l-.1 1.1-.2.4-.3.4-1.3 4.4-.6 2.1q-.3 1.2-.8 2.2a2 2 0 0 1-1.4 1.3l-.4.5h-.1l-.6.2c-.5 0-1 .7-1.3 1a13 13 0 0 0-2.4 3.8l-1.4 2q-.9 1.7-2 3.3a24 24 0 0 1-4.4 4.6l-1.9 2q-.7 1.1-1.9 2.1l-5.5 4.6-.5.3c-1.3 1-2.8 2.2-4.6 2.4h-1.3l-.9-.2-.5.1q-.5.1-.8.5l-.3.4.1.6.2.1h-.2l-1.1-.2-1.1-.3q-.4 0-.7.2l-.7.4q-.5.5-1.2.5l-1.2-.2a10 10 0 0 0-2.8-.7q-.7 0-1.3.2l-.5.3v.1h-.2l-.4-.1q-.6-.2-1.1-.1h-.4l-.2-.1h-.6q-2.2 0-3.6 1.6-.5.6-1.2.6l-1.5-.1-1.1-.1-.7.1q-.6.3-1 .2l-.7.2q-1 .5-1.9 1.3l-.5.4z" class="st0"/><path id="path5846" stroke-width="1.8" d="M420-140.1h.2q.1.2.4.3l.8.2.2.2a1 1 0 0 0 .4 1v.5q0 .8.9.9l.5-.1q.7-.4 1.3-1l.7-.5q.1 0 0 .2v.4l-1.4 1.5q-1.2.8-1.3 2a3 3 0 0 0 1.5 2.9l.8.6.4 1.2v.4q-.1 1.9-2 3.6l-.8.5-.9.5q-.8.5-1 1.8 0 .8.5 1.5t1.1 1q.6.5.8.4h.8q.8-.1.9-1v-.3h.2a1 1 0 0 0 .5 1.3v.3q0 .4.3.6v.1l.3.3q0 .8.9.8h.5l.1.2h.1l1.6 1 1.2.5q1.2.8 2.7.8h.8l2-.6.5.1 1.5.4 1.5.4 1 .7 1.5.8h1q.6 0 1.3.3.8.8.9 2a5 5 0 0 0 1.7 3.2c1.2 1 2.7 1.1 4 1.2q.9 0 1.7.2 3.2.6 5.9 2.4l.8.8c1 .9 2 1.9 3.4 1.9h.3a6 6 0 0 0 5.1-4.3v-.8l-.8-2.1-.3-1.8.2-.8a6 6 0 0 1 2-2.4q1.3-1 3-1.3.7 0 1.3-.4.4-.3 1-.4h2.5l2.9 1.2.6.4v.7q.2 1 1 1.3h.2l1.2.2a12 12 0 0 1 3 1h3.1q.3.1.5.4l.2.4.2.3v.3q0 .5.3 1 .6.4 1 .3.8 0 1.4-.2l1-.1q1.2 0 2.4.3l4 .8q.2 0 .3.2l.8.7q.5.2 1 .1h.7l.4.2q.3.3.7.3h1.1l1.8.7 1.8.6h.5a6 6 0 0 0 3.2-1.5l1-1q.5.2 1 0 .5-.4.8-1l.2.1 1-.2.7-.3h.2q.4 0 .7-.2.4 0 .7.3a3 3 0 0 0 1.5.5l.7-.2.3-.1.2-.1h.3l.2.2.6.8.5.2q.6.1 1 .5.8.7 1.7.7h.2l.4-.1.8-.3q.4.5 1 .3l1-.2 1-.1 1.9-.8 3.5 9.1q-.7 1.3-.8 2.8l-.5 2q-.4 1-.3 2.1v.4q0 .4-.3.7l-.4.7h-.2l-.7-.5a5 5 0 0 1-1.5-1.6l-1.3-1.2a1 1 0 0 1-.5-.8v-.5q-.1-1.4-1.2-2.4l-.5-.6a12 12 0 0 1-1.5-3 1 1 0 0 0-1.7-.2q-.4.7-.4 1.4t.4 1l1 2q.1 1 .7 1.9l2.6 3.4 1 1 .3.3v.2l.2.1q-.1.5 0 .8v.5q-.1.3.4 1 .8.9 1.2 2l.7 1.2-.2.6q0 .4.2.7 0 .3.3.4l.2.4.7 1.2.6 1 3.7 7.2v.1l1.8 2.5q.5.7 1 1l-.5.7v1a5 5 0 0 0 .7 3.1l.1.3q.8 2 2.3 2.5l.4.3q.9.5 1.4 1.3.6.8 1.3 1.3h.1q.5.3.6.9l.3 2q.5 1 1.2 1.7.3.2.4.5a1 1 0 0 0-.3 1.3v.1q.4.9.5 1.8v.4l-.1 1 .2 2.4.2 2q0 1.3.5 2.7a3 3 0 0 0 1.8 2.2q.8.4 1.3 1l1.3 1.3.4.1q.2.4.5.6h.3l.5.4h.1l.1.4a39 39 0 0 1 3 8.4l.6 2.3q.5.9.8 2 .1.5.5.8l.2.2.2.1a1 1 0 0 0 1.8.3l.2.2.1.3a3 3 0 0 0 1 2q.3.3.7.3h.1l.7-.2h.6l.4.6.3.3q.5.6 1.3.6 1 .2 1.6 1.4l.2.3a10 10 0 0 0 2.3 2.6q.4.1.7.4l.1.1.9.6q.3.4.4 1l.2.8.2.2q.2.3.6.5h.3l.1.1.2.3.3.5q.4.6 1 1 .4.3 1 .1v.1l.1.5.3.4.5.8h.1q.4.6.5 1.3v.3q-1 1-2.3 1.3h-.1q-.6.4-1 1A1 1 0 0 0 578-.1l1-.2.2.2.2.2.2.1q1.4.9 2.2 2.5l1 1.5a5 5 0 0 0 4 1.9l2-.4 2.5-1.5q.5-.5 1.1-.5l1.2.2 2 .3a4 4 0 0 0 2-.7l1.3-1q.5-.5 1.1-.6h.2l1.5.4 1.6-.4 2-.7h.8l.8.2h.4a8 8 0 0 0 2.9-1q.7-.3 1.4-.3 1-.1 1.9-.5l.1-.1q.7-.5 1-1.2.3-.5.7-.8h.3q.6 0 1.1.2l.6.5v.1q-.4 1.3-.5 2.6l.1 1.2.2 1.4q-.5.4-.5 1.1v1.6l-.2 2.4q-.6 1.6-1.6 2.9l-.8 2a5 5 0 0 1-.8 2l-.5.4-.6.6q-.5.6-.4 1.3v.6l-2.2 3.7q-.7 1.5-1 3l-.7 2.3a36 36 0 0 1-2.8 4.8l-1.2 2q-.7 1.5-1.6 2.7l-3.8 4.7a37 37 0 0 1-8.6 7.8 23 23 0 0 0-4.2 3.1l-1.2 1.2-3 3.1-1.8 2.2-1.8 2.2-1.1 1.5-.6.7q-.4.7-1 1.2a1 1 0 0 0-.7.7 7 7 0 0 1-1.7 3.3l-.1.3-.3.4q-.5.8-1.4 1h-.4a1 1 0 0 0-1 .9l.1.5.1.3v.2a1 1 0 0 0-.8.5 1 1 0 0 1-1 .6 2 2 0 0 0-1.8 2l.1 1-.2.7-.1.1q-.2.4-.6.7v.2q-.6.6-.8 1.5L564 81l-.3.4-.3.7-.6 1.6-.5 1q-.6 0-.8.4l-.3.6v.1a14 14 0 0 1-1 3.7l-.9 2-.2 1q0 .5.2.8v.7q.2 1 .5 1.1a1 1 0 0 0 1.6-.5l.1-.2v.7q0 .7.7 1v.6a1 1 0 0 0 .2 1v.3l-.2 1q-.6.8-.6 2v.7q-.2.7.4 1v1.1q-.6 1-.6 2.1v.3q0 .8.4 1.4l.2.4v.8l.2.2v.2a1 1 0 0 0 .7 1l-.1.3-.1.5q-.1.5.4 1l.2.4v.6q0 .4.2.7v.3q0 .6.5.8l.2.2.3.4.7.3h.1q.4 0 .7.2.4.4.4.8.1.8.8 1v.1a1 1 0 0 0 0 .9q-.2.4-.2 1l-.1.6-.2.2a1 1 0 0 0-.5.9l.2.6q.3.3.3.8v1.3l.1.3q.1.4 0 .8v.7l-.1.5.1.4v.4l-.1.3v.1q0 .5.3.8l.1.2v.1l-.1.9q-.3.7.2 1v.2l-.2 1-.2 1 .2.8.2.2v1.6l-.1 1q0 .6.4.9a1 1 0 0 0 .5 1.4v.2l-.1.5v.4l-.1.2v.1l-.4.7v.5l-.2.1a1 1 0 0 0-.2 1l-.4 1q-.4.8-1 1.3t-1 1.4l-1.2 1.5-.1.3-.1.4-.5.3q-.5.6-1.3 1l-1.8 1.2-.1.1-.3.5h-.2l-.6.3-1.6.5q-.5.4-1.2.6h-.3q-.6 0-1 .5l-2.4 1.3-.3.2-.3.3-.9.9-1 .6a1 1 0 0 0-.6 1.3q0 .4-.9 1l-.3.3q-1.2.9-1.5 2.2h-.1l-.4.2a1 1 0 0 0-.9 0l-2.3 2-2 2.4-.5.5v.1q-.3.3-.7.3h-.1a1 1 0 0 0-.9 1.3v.5l-.1.1a1 1 0 0 0-.2 1.1v.7q0 .6.3 1l.5.5.4.4a2 2 0 0 1 .4 1.4v1.8q0 .8.4 1.5l.3 1.8.2.4v.5q0 .7.7 1l.1.2v.5l-.3 1.1v.2l.2 1q.2.3.2.7l-.6 1.9-.5 1.5.1.7.5.8.1.4c0 1-1 2-1.4 2.6a9 9 0 0 1-4.3 2.4q-3 .8-5.5 2.4a5 5 0 0 0-2.3 2l-.5 1.1a1 1 0 0 0-.3 1.5l.2.2.7.6.5.3v.2l.1 1.1-.1 1-.1.2-.5.6-1.2 4.5-.6 2.1-.8 2.2q-.3.7-1.1 1l-.7.5h-.3c-.6 0-1.2.7-1.6 1.2a13 13 0 0 0-2.5 4l-1.3 2-2 3.2a24 24 0 0 1-4.4 4.5q-1.2 1-2 2.1-.7 1.2-1.8 2l-5.5 4.6-.4.3a10 10 0 0 1-4.4 2.3h-1.3l-.8-.2q-.4 0-.7.2-.7 0-1 .5l-.2.2-.2.4v.4l-.5-.2-1.2-.3q-.5 0-1 .3l-.7.4q-.5.4-.8.4l-1-.2q-1.6-.6-3.2-.7-.7 0-1.4.3-.3 0-.6.3h-.2l-1.3-.2h-.2l-.3-.1h-.7a5 5 0 0 0-3.9 1.9l-.8.3-1.5-.1H472l-.7.1-.8.2-.9.2q-1 .5-2 1.4-.2 0-.4.3l-.3-.1h-.7l-.2-.1q-.3-.4-.8-.7l-.3-.8v-.1l-.4-.2-.8-.3h-.8v-.2q0-1.4-1.4-1.4h-.3l.2-.7v-.3a4 4 0 0 0-.8-2l-1-1.4v-.1l-.2-.6-.5-.4v-.3h.5q1.4-.2 1.4-1v-.1q.3-.7.3-1.5v-.2a10 10 0 0 0-1.6-5.3 33 33 0 0 1-3.6-7.5l-.3-1.3-.8-2.6-.8-1.4a6 6 0 0 1-.9-2 1 1 0 0 0-.8-.7h-.2l-1.1-1.3-1.5-1.6-1.7-3-.3-1.7-.4-.8-.3-.7v-.9q0-1-.6-1.6v-.9q0-.7-.3-1.3l-.3-1.7-.1-1.2v-1.9q-.4-2-1.3-3.7l-.2-1.5v-2.4q-.2-1-.2-2.1v-.4l.1-.4.3-1.4v-.7a7 7 0 0 0-1.5-3.8l-.4-.6-.7-1-.3-.8-.5-1a16 16 0 0 1-2.3-4.6l-1.3-3-1-2.6q-.9-2.8-2.9-5-2.1-1.7-2.1-5.7V154l.3-2.5.2-2.6v-.6l-.1-.5-.1-.3-.1-.5.5-.6q.3-.2.5-.8l.2-.7v-.6q0-.2.2-.3v-.2l.2-.3v-.8q.1-.9.5-1.9l.4-1.2.1-1.2q-.1-1.2.5-2a3 3 0 0 0 .3-1.9l.2-.6a9 9 0 0 0 1.8-2.3l.5-1.5a1 1 0 0 1 .7-.6q1 0 1.5-.7v-.2l.5-1a11 11 0 0 0 1.3-5.5q0-1.2-.3-2.5a8 8 0 0 0-1.3-2.8l-.9-2.5-.3-.7-.3-.5-.2-1.9-.3-.6-.1-.1v-.2l-.2-.4.3-.4.3-.2.2-.2.3-.2q.6-.2.7-1v-.6a6 6 0 0 0-.9-3 18 18 0 0 1-1.5-3.6l-.2-.9a4 4 0 0 0-1.1-2.5l-.6-.8a5 5 0 0 1-.9-2.2 1 1 0 0 0 0-1.6l-.4-.4-.3-.7v-1.7q0-.4-.3-.7l-.2-.7v-.1a1 1 0 0 0-.7-1h-.1l-.1-.3-.3-1c-.4-1.5-1.7-2.8-3-3.9l-.3-.4h-.1a10 10 0 0 1-2-2.6l-.6-.9a29 29 0 0 0-4-4.3l-.4-.6q-.5-.3-.7-.8v-.1l-.5-.9-.5-.9h-.1v-1.2l-.8-1.2v-.7l-.1-.2-.8-1.5v-.2l-.2-.4.4-.2.8-.3.2-.3q.7-.8 1-1.8v-1.1l-.1-1 .2-.8.2-.2a1 1 0 0 0 0-1.3 1 1 0 0 0 1-1.2l-.1-1v-.5a1 1 0 0 0-1-1h-.2q0-.5.3-.8h.1l.4-.5.4-.6.1-.3q0-.3.2-.5l.3-.5q.5-.7.4-1.7l.1-1.2v-.9l.1-1.1q.3-1 .4-2.2 0-.8-.4-1.5l-.5-.8-.1-.2a1 1 0 0 0-.5-.8h-.2l.3-.4a1 1 0 0 0-.6-1.5h-.5q-.4 0-.6.2l-.7-.2-.4-.2-.2-.2-.5-2.2a1 1 0 0 0-1.3-.5l-.6.3v-.1q0-.4-.2-.7l-.3-.3a1 1 0 0 0-1.6.6l-1 .2q-.6.2-1.2.1h-.5l-.4.1-.4.2h-.2l-.6.2h-.6l-.4-.2h-.2q-.4 0-.7.4l-.7.2a1 1 0 0 0-1 .2h-1.1a1 1 0 0 0-1 .2l-.3-.1-.2-.1-.1-.1-.2-.1-.3-.2a3 3 0 0 1-1.1-1.3l-.1-.2q-.4-.5-.5-1.1V34h.1a1 1 0 0 0-.4-1.3 1 1 0 0 0-.7-1.3 1 1 0 0 0-.6-1v-.1l-.3-.6a7 7 0 0 0-3.9-3.6q-1-.3-2-.3H392l-.6.1h-.6l-.4.1h-1.7l-.6.1h-.4l-.4.2h-.6l-.8.1-1 .2h-.5l-2.4.4-.9.1h-.1q-.7.2-1.3.6l-.5.3-.6.6v.3a1 1 0 0 1-.7.6 1 1 0 0 0-1.2-.3h-.1l-.7.3q-2.4.4-4 1.8l-1.1.7-1.6.6-1.2.3-2 .8-.2.2-1 .9h-.7a4 4 0 0 0-2.1-1l-.6-.2h-.4l-.2-.2a1 1 0 0 0-.9-.4l-.3-.3a1 1 0 0 0-1.7 0l-.2.2h-.2q-.4 0-.7-.2a1 1 0 0 0-1-.1l-.5-.2h-.4l-4.3.6a1 1 0 0 0-.9 0 19 19 0 0 0-4.4.7l-1.4.8q-1 .6-2.3 1a7 7 0 0 0-3.3 1.6h-.7q-.7 0-1.3-.4T335 36l-1.2-.6-1.8-1.1a10 10 0 0 1-2.4-1.6q-1-1-1.7-2l-2-2.3-1-.6-.4-.2q-.8-.3-1.4-.8l-.2-.3-.6-.6-.4-.3h-.1l-.3-.3-.6-.4-.7-.5-.9-1.2-.2-.1-4-2.2a1 1 0 0 0-1-.7h-.6a1 1 0 0 0-.4-1.4l-.4-.3v-.3l-.2-.5-.1-.8a1 1 0 0 0-1-.9h-.3l-.2-.3.1-.3.1-.1v-1.2l.1-.2h.1a1 1 0 0 0-.3-1.5l-.2-.2v-.4l-.1-.3v-.4a1 1 0 0 0-.7-.9l-.3-.4v-.1l-.5-.5V9a1 1 0 0 0-.7-.9l-.5-.5-.6-.4a1 1 0 0 0-.8-.8h-.3q-.3-.4-.7-.6l-.9-.6-.4-.7.2-.5a1 1 0 0 0-.9-1.2h-1.4v-.5l-.6-1.4-.4-.3-.5-.3v-1.6l-.3-.5.1-.4A1 1 0 0 0 299-3v.1l-.9.3-.7-.4-.1-.1v-.1l-.7-.5v-.6a1 1 0 0 0-.7-.9l-.4-.1-.2-.2-.1-.1-.5-.3V-6l-.1-.1.2-.5v-.1l-.1-.4a1 1 0 0 0-.2-1.1l.2-1v-.8l-.2-.4q.3-.3.3-.6a1 1 0 0 0 .8-.7 1 1 0 0 0 0-1.5l-.4-.2-.4-.5-.2-.2-.6-2.4a4 4 0 0 0-1.7-2.1l.3-.2q.4-.1.6-.4 1.5-1.6 2.4-3.6v-.3l.3-.7.4-1.3.1-.4q.2-2.5 1.2-4.7a16 16 0 0 0 1.3-4.3v-1.4l-.3-4.2a5 5 0 0 0-.6-2.3l-.5-.4-.5-.6.1-.2.3-.6a1 1 0 0 0-.1-1q0-.3.3-.5l.4-.4v-.1q.6-.7.6-1.5a8 8 0 0 0-1-2.5 1 1 0 0 0-1-.4l-.5-1-.1-.2-.3-.6a1 1 0 0 0-1.2-.7l.7-2.7q.1-1.3.8-2.3.4-.5 1-.9.8-.5 1.2-1.5l.2-.8.1-.4q0-.3.3-.5a1 1 0 0 0 .4-.8v-.1l.2-.6.2-.2.7-1.2q.5-.5.7-1.1a1 1 0 0 0-.2-1q.9-1.2 2.2-2.3l1.3-1.1a7 7 0 0 0 1.7-3.7l.6-2.2.2-.7c.5-1.5 1-3 2.5-3.8 2-1.2 3.2-2.1 4-4.3l.7-1.7.2-.5.1-.5q.6-.3.8-.8l.4-.5 1.7-.3 1-.2a10 10 0 0 0 5-2.2l2.3-2 1.6-1.3a27 27 0 0 0 3.3-3.9 8 8 0 0 0 1.6-3.5 2 2 0 0 0-.6-1.5l-.6-.5.1-.2q.4-1.1.4-2.3c0-1.8.7-2.7 2-4.2q.5-1 .6-1.9l.2-1q.4-1 1.2-1.7l1-1a8 8 0 0 1 2.4-1.9l1.5-.6 3.5-1.6c3-1.8 4.5-5.8 5.7-9l.2-.4v-.1q.1-.7.5-1.3h.1l1.5-.4h.1l.2.5q.5 1.5 1.8 2.2 1.3 1 2.8.9l2.1-.2h1.4l.9.1a3 3 0 0 0 1.6-.5v.1q.2.4.5.5.6.6 1.3.6l.8-.2h.4q.2.3.5.2a8 8 0 0 0 3.4-1l.8-.3.8-.8a2 2 0 0 1 1-1.1l.5-.3q.5.3.8.1.6-.2 1-.7h.2l1 .2h.3q.9-.2 1.2-.9c1-2 4.7-2.7 6.2-3l1.6-.2 2.2-.2h.6a3 3 0 0 0 1.6-.6l.6-.3h.1q.2.2.5.2l.5-.2h.6l1.3-.2q1.2-.4 2.4-.4h2q1 0 1.7.7.5.6 1.3.6.6 0 1-.4h.1q.4-.4.8-.5h1.2l1.1-.4a1 1 0 0 0 .5-.9q.5 0 .9.2.8.6 1.9.7.7 0 1.3-.5l.5-.5h.1l.5.3.7.2q.2.6.8.7l1.1-.1 1-.1 1.4-.1.3-.1.4-.1q.3 0 .5-.2l.4-.3a4 4 0 0 1 2-1.2h.2q.5-.3 1-.3m0-1-1.4.4q-1.5.3-2.5 1.5-.2 0-.3.2h-.5l-.2.1h-.1c-.7.3-1.6 0-2.5.3l-.7.1.4-.6h-.9l-1.4-.6h-.5l-.6.4-.2.3-.8.2q-.8 0-1.4-.4a3 3 0 0 0-1.5-.5l-.5.2-.3.6v.2l-.9.3h-1.1q-.7.2-1.2.6l-.6.4-.6-.3q-1-1-2.4-1h-2a7 7 0 0 0-2.7.5h-1.8l-.3.2-.6-.1q-.7 0-1.2.5l-1 .4h-.6l-4 .4c-2 .3-5.6 1.1-6.8 3.4l-.4.5-1.3-.3q-.4 0-.8.3-.2.4-.7.5l-.4-.1-1.2.5q-.8.5-1.2 1.4l-.4.3-.7.3q-1.5.9-3.1 1l-.8-.3-.5.1-.4.1-.6-.2-.2-.3-.3-.8-.7-.2q-.6.9-1.7.9l-1.8-.1h-.4l-2.1.2a4 4 0 0 1-2.3-.8 3 3 0 0 1-1.4-1.7l-.3-.6a1 1 0 0 0-.7-.6l-.5.1-1.2.4h-.2l-.6.3q-.5.8-.7 1.7c-1.2 3-2.6 7.2-5.5 8.9l-4.8 2.2c-1.7.7-2.6 2-3.7 3a5 5 0 0 0-1.4 2c-.4 1.3-.2 2-.8 2.7a8 8 0 0 0-2.2 4.8q.1 1-.2 2l-.2.6q0 .4.4.7.2 0 .4.3.4.3.4.9a7 7 0 0 1-1.4 3 26 26 0 0 1-3.2 3.7l-4 3.3a9 9 0 0 1-4.5 2l-2.8.6q-.3.1-.5.4c-.3.2-.5.8-.8 1h-.2l-.1.1-.5.7h.3l-.3.5-.7 1.8c-.7 2-1.6 2.7-3.5 3.8s-2.5 3.2-3.2 5c-.9 2.2-.5 4-2 5.5-1.3 1.3-3.4 2.6-4.2 4.4l.7.4q-.2.5-.6.9l-1 1.5-.3.9v.2a2 2 0 0 0-.7 1.1l-.3 1.1q-.2.7-.8 1l-1.3 1.1a7 7 0 0 0-.9 2.8l-.8 3.8q0 .7.3 1.3l.3-.2.4.1.4-1.3q0 .5.3.9.3 1 1 1.7l.6.4v-.5q.7 1 .9 2.2 0 .4-.3.6v.1l-.4.4a2 2 0 0 0-.7 1.3q0 .3.2.5h.1l-.3.6-.3-.1v.5c.1 1 1 1.4 1.2 1.8q.5.8.5 1.8.3 2 .4 4.1l-.1 1.3c-.3 3-2.4 5.7-2.5 9l-.2.6-.5 1.8a12 12 0 0 1-2.2 3.4l-1 .6q-.4.1-.7.4t-.3.7v.9l.6-.6.4-.2q1.1.6 1.5 1.9.6 1.2.7 2.5v.1h.1v.3l.1.3.4-.1-.1.4h.5l.2.1-.3.6h-.1l-.5.2-.4.3.2.3-.3-.1v.4q0 .6.3 1.2v.1l-.3 1.3.2.6v.9l-.1.5q0 .4.2.7l.1.2.2.5.3-.2.4.3q.3.4.9.5l-.1.3v.2h-.1l.3.6.1.5.4-.2.2.4q.3.3.7.3h.1v.5l.5-.1a3 3 0 0 0 1.6-.4l.2-.2v.3q0 .6.3 1.1v.1q-.2.3-.2.7v.3l-.1.4h-.2l.5.5q.3 0 .4.3l.3-.3q.1.2.3.2l.4 1v.4q.1.6.8.8l.6.1.2 1 .5-.9h.2l-.3.8-.4.7.7-.1h.1q0 .5.5.8l1 .6q.5.3.5.6h.8q0 .7.5.9l.7.4-.2.4.4.1h.4v.8l.3.3.2.2.3.4.1.2v.5l.5-.1v.6l.1.3v.4l.1.7.3-.2.5.3-.1.1a1 1 0 0 0-.5.8l.2.8v.1l-.3.7q0 .6.6 1 .4.3.9.3l.2 1 .2.8.1.4q.2.2.5.2l.3.2h-.6v.5l-.3-.2-.1.3-.2.3.4.1 2 .6h.1v.1q2.2 1.5 4.6 2.6.5.4.8 1t1 .8l.8.6q.3.3.7.4 0 .6.6.9l1.5.9 1 .5c1.4 1.3 2.5 3 3.9 4.3s3 1.9 4.3 2.9c.8.6 1.8.7 2.5 1.2q.8.5 1.8.5h.7q.5 0 .9-.4a6 6 0 0 1 2.6-1.2c1.5-.2 2.7-1.3 3.9-1.8q2.2-.6 4.5-.7v-.1h1.1q1.8-.4 3.6-.5h.4l.6.2h.4q.6.3 1.3.3t1-.6l.2-.1v.1l.7.7-.2.4.8-.3q.3.4.8.4l.9.2q1 .1 1.6.7.5.5 1 .5l.8-.2 1.3-1 1.8-.8c.9-.4 2-.4 3-1 1.6-1 2.8-2.1 4.8-2.4q.4 0 .9-.3h.2l.5.3h.2a2 2 0 0 0 1.5-1.3l.4-.3.4-.3 1-.5h.9l3-.5 1.7-.3v.1l.5-.1h.5l1-.2h1.7l.6-.2h1.9q1 0 1.9.2a6 6 0 0 1 3.3 3.1l.3.6q.1.4.5.5l-.2.4q0 .4.4.5.2.2.5.2v.9l.1.4h.4l-.1.1v.5q0 1 .6 1.7a4 4 0 0 0 1.5 1.7l.5.3.5.3.5.3q.4 0 .6-.4h1.4v.6l.6-.7.1-.1.1.1.4.2q.3 0 .3-.2l.2-.3.2.2.4.2.2-.4v-.3h.2-.2.6v.4l.6-.2h.6v-.2l.2.1.4-.2.4-.2h.6l1.4-.2 1.2-.3.4-.7.3.3v.2q0 .3.3.6t.7.3h.7v-.4l.2-.1.5 2.1q.2.5.5.7.4.4 1 .4.3.5.9.5h.3v-.3l.1-.2h.5l-.4.3q-.3.3-.3.6 0 .5.4.8l.4.1.3.9q.3.2.4.5.3.5.3 1.1l-.4 2-.2 1.2.1.7c-.2 1.1 0 2.2-.3 2.7l-.4.5-.3.9-.7.9q-.6.6-.6 1.4v.3q.4.7 1.2.7v.6l.1 1.2-.4-.1h-.3l-.5.2-.2.4q0 .5.3.7l.4.3-.2.2a2 2 0 0 0-.5 1.6v1.8q-.2.8-.7 1.4l-.2.3V64l-.6-.6-.1.7v.2-.2l-.2-1.4-.6 1.3-.2.6q0 .6.4 1.1l.2.6.8 1.4v.2l-.2.2q.6.8 1 1.7v.7h-.3l.6.7.9 1.6q.3.8 1 1.3l-.1.1.4.4a28 28 0 0 1 3.9 4.2c.7 1 1.6 2.7 2.7 3.6 1.2 1.1 2.8 2.4 3.1 3.8l.3 1 .3.7q.2.3.5.4c0 .8.6 1.4.6 1.6v.3l-.1 1.1q0 .4.3.7v.1q.1.8.9 1.3a1 1 0 0 0-.4 1q.2 1.4 1 2.6 1 1 1.5 2c.2.5 0 1.2.4 1.9q.5 2 1.5 3.8.7 1.1.7 2.5v.7l-.6.4-.3.3q-.7.4-.8 1.2l.2.8v.6l.2-.2.3.5q.2.8.1 1.6l.7 1.3q.3 1.5 1 2.8.8 1.2 1.2 2.5.3 1.2.2 2.3a10 10 0 0 1-1.2 5l-.5 1.2q-.2.3-.7.3-1.1.2-1.6 1.2l-.4 1.5-1.6 1.9q-.6.7-.4 1.5 0 .6-.3 1.1c-.8 1.2-.5 2.5-.7 3.6 0 .7-.9 2.2-.9 3.2l.1.5-.2.3-.2.8-.2 1.2q-.4.3-1 1.2l-.1.4.2.8v1.1l-.3 5.1v.4l-.1 1.4c0 2.4.4 4.7 2.5 6.5 2 1.7 2.3 4.7 3.6 7.2s1.8 5.3 3.7 7.8l.7 1.6 1.2 1.8a6 6 0 0 1 1.3 3.3v.5l-.4 1.8v.5l.2 2.3v2.2q0 .9.3 1.8.8 1.8 1.2 3.7v2.1l.2 1.6.4 2.1v.6q0 .5.3.9.4.3.3 1v.4l.1.8.7 1.4q0 1 .4 1.9l1.8 3c.8 1.3 1.9 2 2.6 3q.3.4.8.4c.3 1.4 1.4 2.5 1.8 3.5l1 3.9a34 34 0 0 0 3.7 7.7 9 9 0 0 1 1.5 4.8v.2l-.2 1.3q-.2.4-.5.4l-.6-.2-.4-.2-.2.4-.4 1.4.1.4q.2.3.5.3l.2.1v.2l.1.3 1.1 1.6q.5.7.6 1.5v.2c0 .3-.5 1.2-.6 1.9q0 .9 1 1.3l.5.1v-.6l-.1-.7v-.4h.3q.4 0 .4.5v.4l-.2.5h.4q.5.2 1.4.2l.6.2.1.1v.2l-.4.5.5.1q.6.3 1 .8l.7.3h.5l.7.1.5-.1.4-.4 1.9-1.3c.3-.2.9 0 1.6-.4h.5l2.5.1q1 .1 1.7-.7a4 4 0 0 1 3.2-1.5h.6l.7.1.8.1.6.2q.5 0 .6-.3l.2-.2 1.1-.1q1.5 0 2.8.6l1.4.3c.9 0 1.2-.6 2-1l.5-.1 2.1.5q.4 0 .7-.2l.6-.2-.6-.4-.2-.2.2-.3.5-.3.5-.1 1.8.2h.4c2-.3 3.8-1.8 5.3-2.9l5.5-4.5c1.6-1.3 2.4-3 3.8-4.1a25 25 0 0 0 4.6-4.7l2-3.3 1.4-2.1a12 12 0 0 1 2.3-3.8l1-.8h.6l.4-.3.1-.3q1.3-.3 1.8-1.6.5-1 .8-2.3 1-3.2 1.8-6.5.5-.2.6-.8l.2-1.3-.1-1.9v-.3l-.8-.2v.2l-.7-.7-.2-.2q.3-.1.5-.4l.5-1.1a4 4 0 0 1 1.9-1.6 23 23 0 0 1 5.3-2.4 10 10 0 0 0 4.7-2.6c.6-.6 1.7-2 1.7-3.2q0-.5-.3-1l-.5-.7c.3-1 1-2.2 1.1-3.4v-.2l-.4-1.7.4-2.2h-.2v-.6l.1-1.2-.7 1h-.1v-.1l.1-.8-.2-.1v-.5l-.7-2.8v-.4l-.1-.1v-1a3 3 0 0 0-.6-2l-.8-.9-.2-.5v-1.1l.2-.4q.2-.3.2-.7l-.1-.5h.2q.7-.1 1.2-.6l.7-.7q1.1-1.1 2-2.4 1-1 2-1.7l.4.1.5-.1.3-.2.3.3.3-.5h.1v-.6q0-.7 1.2-1.6c.6-.5 1.4-1.1 1.4-2v-.4l1.4-.9q.8-.8 1.2-1a11 11 0 0 0 3-1.8l.6-.1 1.4-.7 1.4-.4.8-.3.4-.2q.2-.1.2-.4v-.1l.1-.1q.7-.7 1.6-1.1a5 5 0 0 0 1.6-1.2l.3.5.3-.8.2-.7 1.2-1.6c.4-1 1.4-1.5 2-2.7q.4-.7.6-1.5v-.5l.3-.5v-.2l.2-.4h-.1q.3-.3.3-.7l.2-1.1v-.3a1 1 0 0 0-.6-1l.2-.7-.5-.5.2-2.2-.1-.8-.4-.6.2-.8.3-1.3-.2-.6-.2-.2q.3-.6.3-1.2l-.1-.5-.3-.5v-1.6l.1-.6v-1.4l-.2-1.4q0-.8-.4-1.4l.2-.2q.2-.1.3-.5l.2-1.1.2-.8.3-.3-.4-.2.2-.6a1 1 0 0 0-.8-1 2 2 0 0 0-.8-1.4q-.5-.6-1.3-.6h-.1l-.2-.2q-.2-.3-.6-.5v-.2q0-.4-.2-.7v-.8l-.4-.9q-.2-.1-.2-.3v-.1q.3-.5.3-1a1 1 0 0 0-.7-.8l-.1-.4-.2-.4v-.3l-.3-1-.3-.9v-.3q0-1 .5-1.8l.2-1-.1-.7q-.1-.4-.5-.5l.1-1q0-.8.5-1.4.4-.7.4-1.5l-.2-.8-.1-.2v-1.4l-.6-.4a4 4 0 0 0-.5-2.1l-.5-.8-.3.8-.3.6q-.3.3-.4.8l-.2-.4v-.4q-.1-1-.3-1.1l.2-.8q.3-1 .8-1.9.9-1.9 1.2-4v-.2l.2-.1.6.3v-.6c.2-.8 1.3-1.8 1.3-3.1V82l.5-.7q.4-.8.6-1.7l.6-1.2q.5-.4.7-1 .4-.6.5-1.3l-.1-.2-.1-.6a1 1 0 0 1 1.1-1.2 2 2 0 0 0 1.6-1v.3l.7-.7q.3-.3.3-.8t-.2-.7v-.1h.3a3 3 0 0 0 2.3-1.4l.3-.5a8 8 0 0 0 2-3.8l.4-.2q.6-.6 1-1.3l1.7-2.2 3.7-4.4 4-4.2a22 22 0 0 1 4.1-3 38 38 0 0 0 8.8-8l3.8-4.7c1.2-1.5 1.9-3.3 2.9-4.8a37 37 0 0 0 2.9-5c.7-1.8.8-3.6 1.6-5.2q1.3-1.7 2.2-3.7c.3-.7 0-1.4.3-1.7l1.1-1c1.1-1.3 1-3 1.7-4q1-1.5 1.7-3.2.3-1.3.3-2.7V4.6l.1-.4.3-.1v-.5l-.2-1.6V1q0-1.3.4-2.5v-.3q-.1-.9-1-1.3l-1.6-.3-.8.2q-.6.4-1 1-.2.6-.7 1c-1 .4-2.1.2-3.3.7q-1.2.8-2.7 1h-.1l-1.6-.3-.5.1-2 .8q-.5.2-1.2.2l-1.2-.2-.4-.1a3 3 0 0 0-1.8.8q-.7.4-1.3 1-.7.4-1.5.5l-1.7-.3-1.4-.2q-1 0-1.7.7-1.1.8-2.3 1.4-.8.3-1.7.3a4 4 0 0 1-3.2-1.6c-1-1.2-1.8-3.3-3.4-4.2l-.7-.5-.4-.1q-.7 0-1.3.2l.5-.5a7 7 0 0 0 2.7-1.6q.3-.4.3-.9a4 4 0 0 0-.8-1.8q-.4-.8-.8-1.2v-.2q0-.7-.7-1l-.5-.4-.2.6v.1l-.7-.8-.6-1-.8-.3-.2-.2c-.2-.4-.1-1.5-1-2l-.9-.7-.9-.7a9 9 0 0 1-1.9-2.2c-.5-.8-1-1.9-2.5-2l-.7-.4-.7-.9-1-.4q-.7.1-1 .3h-.1a2 2 0 0 1-.8-1.4q0-.5-.3-1-.4-.5-1-.5h-.2l-.5.3v.3q-.4-.7-.7-.9l-.3-.3q-.3-1.2-.9-2.3l-.5-2a40 40 0 0 0-3-8.6q0-.5-.5-.7l-.8-.5-.3-.3v-.8l-.6.5-1.2-1.1q-.6-.9-1.6-1.3a2 2 0 0 1-1.3-1.7q-.4-1.2-.4-2.5l-.5-4.3.1-1v-.4a6 6 0 0 0-.6-2.4h.7a3 3 0 0 0-1-2l-1-1.5q-.2-.8-.1-1.6a2 2 0 0 0-1.1-1.5c-1-.7-1.6-2-2.8-2.7s-1.9-1-2.3-2.2l-.1-.7h-.2a4 4 0 0 1-.6-2.4l.1-1 1 .2h.8l-.4-.6c-.6-1-1.6-1.2-2-1.9q-1-1.2-1.7-2.5l-3.8-7.2-1.2-2.2q-.1-.4-.4-.6l-.2-.3-.1-.1v-.2q.3-.2.3-.5l-.1-.4q-.5-.5-.7-1a7 7 0 0 0-1.4-2.5l-.1-.3v-.3l-.1-.5v-.3l-.2-.8-.4-.5-1.2-1.2q-1.4-1.5-2.4-3.2c-.8-1.1-.7-2.6-1.8-4l-.1-.4.2-1q.6 1.8 1.7 3.4c.6.8 1.5 1.6 1.5 2.4v.5a2 2 0 0 0 1 1.6l1 1a6 6 0 0 0 1.7 1.8l1.5 1 .7-.5v-.1q0-.5.3-.9.4-.5.5-1.2v-.4l.3-1.6c.6-1.7.4-3.9 1.3-4.9l.1-.2-4-10.8-.5.4q-1 .7-2 1c-.7.2-1.4 0-2.2.3l-.1-.1-.5-.2-.8.2-.5.2h-.1l-1.1-.5a3 3 0 0 0-1.5-.7l-.5-.6a1 1 0 0 0-.8-.6l-.4-.1-.6.2-.6.3h-.1l-1-.4-1.3-.5-.6.1v.2h-.2c-.8 0-1.3.5-1.7.5l-.3-.1-.5-.3-.1.6q-.2.5-.6.8l-.3-.2-.3-.2-.3.3-1.2 1.2a5 5 0 0 1-2.7 1.2h-.4c-1-.1-2-1-3.5-1.1l-1.2-.1-.3-.2-.7-.4h-.1l-.7.1h-.6l-.4-.4q-.4-.5-.9-.6l-4-.8-2.6-.4-1.2.2-1.1.2-.4-.1v-1.1h-.2l-.3-.6q-.4-.7-1.1-.9h-3.2l-3-1-1.2-.1q-.5-.2-.5-.5v-.6l-.3-.8-.9-.5q-1.4-.7-3-1.2l-1.7-.2h-1c-1.2.2-1.7 1-2.4 1a6 6 0 0 0-3.4 1.4 7 7 0 0 0-2.4 2.8q-.2.5-.2 1.1 0 1 .4 2.1.5 1 .7 2v.3a5 5 0 0 1-4.3 3.6h-.2c-1.3 0-2.3-1.3-3.6-2.4a17 17 0 0 0-6.3-2.6c-2-.3-3.9 0-5.3-1.3a4 4 0 0 1-1.4-2.5 4 4 0 0 0-1.3-2.7c-.9-.5-2-.2-2.5-.4L440-116c-1.1-.5-2.1-.5-3-.8q-.4-.2-.9-.2l-2.3.5h-.5q-1.3 0-2.2-.6-1.5-.6-2.7-1.4h-.1l-.2-.2-.3-.2h-.7l-.3-.6-.3-.3v-.4l-.5-.7h-.1q.3-.3.3-.8l-.4-.5-.7-.1-.8.2q-.3.1-.3.7v.3h-.9q-.6-.4-1-1-.4-.4-.4-1 0-.4.7-1l1.7-1c1.2-1 2.3-2.6 2.3-4.2v-.8l-.5-1.4-1.2-1a2 2 0 0 1-1-1.9q0-.6 1-1.4l1.6-1.7q.2-.4.2-.9 0-.8-.7-1.1h-.3l-.7.3-.5.3q-.5.6-1.2 1h-.1v-.4a1 1 0 0 0-.4-.8l.1-.3-.1-.3a1 1 0 0 0-.7-.8l-1-.2-.4-.3zM295.2 0v-1l-.6.3-.6.5-.6.6h1.4V0h.1zm.4 1.4a1 1 0 0 0-.8.6q0 .5.5.8l.3-.3.2.3.5-.3.4-.2-.2-.3q-.4-.6-1-.6" class="st2"/><path id="path5848" stroke-width="1.8" d="M297.1-.6h-.9v.3l-.5-.1-.1.4-.1.4.3.2h.5q.7-.1.8-.8zm.6 1q-.6.4-.8 1v.3l.4-.1.3.2q.4-.3.6-1l.2-.7z" class="st2"/><path id="path5850" stroke-width="1.8" d="m563.7 103.1-.5.5q-.5.4-.5 1v.3h.4l.2.2.7-.5q.5-.4.5-1v-.5l-.4-1zm-.2-16.1-.4-.2-.1.5v.5h.3-.3l.1.6v.1l-1 .1 1 .6-.2.6a1 1 0 0 0 .6.7 1 1 0 0 0 .8-.6q.3-.6.3-1.3a1.5 1.5 0 0 0-1-1.7" class="st0"/><path id="path5852" d="m563.8-22.2 1 .2h1.3l-.3-.5q-.2-.4-.5-.6h-.8c-.2 0 0 0-.2-.2v-.5l-.2-.4-.6-.3-.3.1.1.4h-.3v.3l-.8-.6.7 1.3q.2.6.9.8" class="st3"/><path id="path5854" stroke-width="1.8" d="M579.2 125.7q0 .6.6.9l.5.5.3.2.3-.2.3-.7-.2-.7c-.2-.5 0-1.2-.3-2q0-.3-.4-.3t-.7.4l-.3.9zm2.3 3.8.7.2.1-.2h.4v-.3q-.4-1-1.3-1h-.3l-.2.4q0 .7.6 1m3.7 0h.2l.1.2h.1l.1-.1.1-.2q.2-.3.2-.7l-.3-.6-.8-.2-.7-.1a.3.3 0 0 0-.4.2l.1.4zM405 59.5h-.2q-1 .4-1 1.4 0 .6.2 1.1v.1l.1.1q.3.1.2.2h.2q.8-.5 1.2-1.4v-1l-.7-.4m3.9-7.3-.4.1a1 1 0 0 0-.5.9q0 .4.4.7l.1.1h.5l.1-.1v-.1q.2-.3.2-.7t-.2-.7zm229.9 35.4h-.3q-.2.1-.3.4l.2.4q.3.1.5.5 0 .4.4.4h.1l.2-.1v-.4l-.1-.7z" class="st0"/><path id="path5856" stroke-width="1.8" d="M291.4-87.6h.2l.2-.2.7-1v-.3l-.3-.2h-.4a1 1 0 0 0-1 .8q0 .6.6.8m.6-4.8.2.3.4.2.1-.1.4-.3.1-.1q.4-.5.4-1.2l-.2-.7-.7-.4h-.3a1 1 0 0 0-.8.8l.2 1zm3 2.8h.2a1 1 0 0 0 1-1q-.1-.5-.8-.7h-.2l-.6.3q-.2.2-.2.5 0 .6.5 1m2.4 0 .2.1h.3c1.4-.6 2.5-2.4 3-3.5v-.5l-.5-.1q-1.7.9-3.6 1.3l-.3.3v.3zm5.3 1.5h.2a2 2 0 0 0 1.2-2q0-.4-.3-.8l-.8-.3h-.5q-1 .5-1 1.5 0 1.3 1.2 1.6m9-5.8v-.2h-.1v-.1l-.4-.1h-.1l-.3.2q-.8.9-1.2 2-.4.8-1.2 1.2-.3.1-.3.4l.2.4.4.2h.5l1.2-.7q.8-.3 1.2-1.2v-.6l.2-1-.1-.4z" class="st2"/><path id="path5858" stroke-width="1.8" d="M313.6-96.4q-.1-.5-.6-.6-.9.2-1.3.9-.5.4-.8 1v.2q0 .2.2.2h.1l.8.2.9-.5q.7-.3.8-1zm274.6 229.3.3.1.3-.2q.4-.5.4-1.2a1 1 0 0 0-.7-.9.3.3 0 0 0-.4.2l-.2 1z" class="st0"/><path id="path5860" stroke-width="1.8" d="m342 154-.3.1a1 1 0 0 0-.5.9q0 .4.4.7h.4l.3-.1.2-.7q0-.4-.2-.7z" class="st2"/></g></svg>