<svg xmlns="http://www.w3.org/2000/svg" width="1024" height="768"><path d="M0 0h1024v768H0z" style="fill:#004990;fill-opacity:1"/><path fill="#fff" d="M730.1 387.8v-8.6h217.6v8.6zm-652.8 0v-8.6h217.6v8.6zm430.9 213.3h8.6v89.6h-8.6zm0-524.8h8.6v89.6h-8.6zm195.4 306.9H512.3l34.5-36-30.2-135.5c0-1.5 1.4-1.5 1.4 0l40.3 126.8zm-46.1-25.9c-10-60.6-57.5-109.6-119.4-121.1l4.4 11.5c51.8 11.5 93.5 53.3 105 106.7zM512.3 573.5V383.2l34.5 33.2 136.6-28.9s1.5 1.5 0 1.5l-128 40.3zm24.4-44.7c61.9-10.1 110.8-59.1 120.8-119.6l-11.5 4.3c-11.5 51.9-53.2 93.7-105 103.8zM320.9 383.2h191.4l-34.6 34.6 30.2 135.5c0 1.5-1.4 1.5-1.4 0l-40.3-126.8zm46.1 24.5c10 60.6 57.5 109.6 119.4 121.1l-4.4-11.5c-51.7-11.6-93.5-53.4-105-106.7zm145.3-216.2v191.7l-34.6-34.6-136.6 28.8s-1.5-1.4 0-1.4l128-40.4zm-24.5 44.7C425.9 246.3 377 295.3 367 355.8l11.5-4.3c11.5-51.9 53.2-93.7 105-103.8z"/></svg>