<svg xmlns="http://www.w3.org/2000/svg" width="629.291" height="199.488"><path d="M614.009 550.446c45.592 0 82.556-34.982 82.556-78.176s-36.964-78.203-82.556-78.203-82.556 35.01-82.556 78.203 36.964 78.176 82.556 78.176" style="fill:#2072b8;fill-opacity:1;fill-rule:nonzero;stroke:none" transform="translate(-84.945 -374.038)"/><path d="M476.138 499.484v-51.379l35.713-56.436v47.26l-21.897 34.853 21.897 34.878v47.234zm-45.618 0v-51.379l35.713-56.436v47.26l-21.897 34.853 21.897 34.878v47.234zM102.618 472.791c0 18.847 14.337 36.286 33.887 36.286 18.951 0 33.862-18.013 33.862-36.286 0-20.828-16.761-36.39-33.862-36.39-15.953 0-33.887 15.562-33.887 36.39m11.209 0c0-17.986 3.701-35.087 22.678-35.087 18.951 0 22.653 17.1 22.653 35.087 0 23.435-5.944 34.983-22.653 34.983-16.735 0-22.678-11.548-22.678-34.983" style="fill:#000;fill-rule:nonzero;stroke:none" transform="translate(-84.945 -374.038)"/><path d="M179.934 506.288h10.844v-66.785h-10.844V438.2h55.94v16.813h-1.12c-3.337-10.14-7.247-15.51-18.065-15.51h-16.162v30.134h6.334c8.655 0 11.392-2.633 14.207-14.337h1.121v30.342h-1.12c-1.747-7.56-3.311-14.702-12.644-14.702h-7.898v35.348h18.404c14.258 0 18.638-14.103 19.42-20.072h1.12v21.375h-59.537zM308.264 507.591h-1.512c-.86-.964-1.851-2.033-4.275-1.98-3.806 0-9.072 3.466-18.013 3.466-8.211 0-16.11-2.79-22.965-9.515-6.335-6.36-11.21-15.04-11.21-26.484 0-19.55 14.937-36.677 34.853-36.677 8.107 0 12.121 3.754 16.031 3.754 2.529 0 3.415-.99 4.275-1.955h1.512v19.446h-1.12c-2.32-9.958-6.622-19.942-21.61-19.942-20.776 0-22.731 20.724-22.731 35.374 0 27.449 9.28 34.696 22.73 34.696 17.361 0 20.281-10.949 22.914-20.932h1.12zM319.786 507.591h16.578c1.93 0 4.093.105 6.335.209 2.242.026 4.51.13 6.439.13 9.201 0 13.294-.287 19.654-2.972 11.235-4.77 20.124-15.014 20.124-32.115 0-14.728-6.933-27.605-22.86-32.793-5.37-1.72-9.28-2.19-17.205-2.19-1.747 0-3.624.105-5.474.105-1.851.13-3.624.235-5.475.235h-18.116v1.303h10.818v66.785h-10.818zm20.567-68.088c2.45-.13 5.083-.339 8.315-.339 21.87 0 29.013 13.477 29.013 34.07 0 8.707-1.355 15.823-5.578 22.861-5.448 9.176-14.155 10.532-23.044 10.532-3.519.052-6.464-.13-8.706-.34z" style="fill:#000;fill-rule:nonzero;stroke:none;stroke-width:.5;stroke-linecap:butt;stroke-linejoin:miter;stroke-miterlimit:4;stroke-dasharray:none" transform="translate(-84.945 -374.038)"/></svg>