<svg xmlns="http://www.w3.org/2000/svg" width="76" height="72.64" viewBox="0 0 20.11 19.22"><g fill="#009fe3"><path d="M4.75.66A4.1 4.1 0 0 0 .66 4.77 4.1 4.1 0 0 0 4.75 8.9a4.1 4.1 0 0 0 4.09-4.12A4.1 4.1 0 0 0 4.75.66m3.13 15.76a1.1 1.1 0 0 1-.75-1.01c0-.59.5-1.06 1.1-1.06q.34 0 .6.16a4 4 0 0 0 .05-1.35q-.27.19-.64.2c-.61 0-1.1-.48-1.1-1.07 0-.54.41-.99.96-1.06A4.1 4.1 0 0 0 .73 13.7a4.1 4.1 0 0 0 7.15 2.72m11.25-.4a2.1 2.1 0 0 1-1.18-1.87c0-.98.58-1.8 1.5-2.02h-.01a4 4 0 0 0-3.69-2.54 4.1 4.1 0 0 0-4.09 4.11 4.1 4.1 0 0 0 7.47 2.32"/><path d="m11.45 6.18-.19 11.53-.01.01c0 .42-.3.84-.7.84s-.7-.42-.7-.84v.02L9.28.92h2.51v.02l-.13 1.94a4.09 4.09 0 0 1 7.71 1.9 4.1 4.1 0 0 1-7.93 1.41m7.62 9.79.1.04"/></g></svg>