<svg xmlns="http://www.w3.org/2000/svg" viewBox="0 0 100 100">
<rect width="100" height="100" rx="22" fill="hsl(36, 100%, 98%)"/>
<path transform="translate(17.881 18.206) scale(1.65)" d="M0.65625 37C1.4375 34.3906 2.49219 28.6094 3.82031 19.6562C4.47656 15.2344 5.00781 11.1094 5.41406 7.28125C4.61719 5.78125 3.875 4.58594 3.1875 3.69531C4.125 3.58594 5.07812 3.36719 6.04688 3.03906C7.46875 2.55469 8.48438 2.07031 9.09375 1.58594V1.63281L9.14062 1.58594L9.11719 1.63281C9.58594 3.53906 11.2891 9.15625 14.2266 18.4844C16.3516 25.2031 17.8281 29.0547 18.6562 30.0391C19.5156 28.8047 21.1875 24.8203 23.6719 18.0859C26.0156 11.7266 27.4688 7.46875 28.0312 5.3125C27.9531 5.09375 27.8047 4.78125 27.5859 4.375L27.1875 3.625C29.0781 3.40625 30.9922 2.74219 32.9297 1.63281L33.0938 1.53906V1.5625V1.58594C33.0938 6.60156 33.5391 12.1562 34.4297 18.25C35.5078 25.5938 36.6484 30.8438 37.8516 34C38.0547 34.5312 38.1953 34.8125 38.2734 34.8438C37.2109 34.9688 36.2578 35.1875 35.4141 35.5C34.0547 36 33.0391 36.5 32.3672 37C32.3984 36.7031 32.4141 36.3359 32.4141 35.8984C32.3828 32.9453 31.8359 27.1875 30.7734 18.625C30.3359 15.0781 29.8516 12.1016 29.3203 9.69531L25.8281 18.2266C23.375 24.4453 21.8516 29.6953 21.2578 33.9766C21.1953 34.4297 21.1562 34.6641 21.1406 34.6797L21.1641 34.9141C19.2734 35.1328 17.3594 35.7969 15.4219 36.9062L15.2578 37C14.7578 32.2812 13.1719 26.3438 10.5 19.1875C9.23438 15.7969 8.0625 12.9141 6.98438 10.5391C6.54688 13.1484 6.08594 16.2188 5.60156 19.75C4.85156 25.125 4.38281 30 4.19531 34.375L4.17188 34.9141C2.98438 35.1484 1.84375 35.8125 0.75 36.9062L0.65625 37Z" fill="hsl(0, 0%, 7.5%)"/>
</svg>
