<svg viewBox="0 0 600 600" version="1.1" xmlns="http://www.w3.org/2000/svg" xmlns:xlink="http://www.w3.org/1999/xlink" xml:space="preserve" xmlns:serif="http://www.serif.com/" style="fill-rule:evenodd;clip-rule:evenodd;stroke-linecap:round;stroke-linejoin:round;stroke-miterlimit:1.5;">
    <g transform="matrix(0.998562,0,0,0.998562,7.01797,-0.199518)">
        <circle cx="293.404" cy="300.632" r="300.432" style="fill:none;stroke:#000; stroke-width: 1;"/>
    </g>
    <g transform="matrix(0.998562,0,0,0.998562,7.01797,-0.199518)">
        <circle cx="293.404" cy="300.632" r="300.432" style="fill:none;"/>
        <clipPath id="_clip1">
            <circle cx="293.404" cy="300.632" r="300.432"/>
        </clipPath>
        <g clip-path="url(#_clip1)">
            <g transform="matrix(1.00144,0,0,1.00144,26.7432,31.4302)">
                <path d="M211.632,45.955L197.519,69.72L189.151,80.167C189.849,79.767 168.797,80.392 163.117,80.291L157.839,64.297L137.079,56.091L83.096,62.376L65.476,88.545L27.792,143.191L25.689,203.824L44.147,251.19L71.654,256.747L134.339,254.736L154.142,277.739L173.32,300.203L193.694,323.999L203.193,344.766L200.24,370.852L211.588,391.254L222.403,404.305L237.188,422.24C237.188,422.24 237.816,428.145 237.03,432.864C236.243,437.584 255.075,448.893 255.075,448.893L277.85,443.435L296.841,429.132L321.684,399.462L337.202,382.26L344.1,333.364L355.368,309.407L345.952,281.542L341.531,246.595L355.581,222.273L372.399,203.263L370.658,188.207L357.189,187.341L345.127,177.659L334.256,145.379L314.554,116.56L311.789,96.757L314.364,73.224L310.317,51.781L211.632,45.955Z" style="fill:none;stroke:#000; stroke-width: 1;"/>
            </g>
            <g transform="matrix(1.00144,0,0,1.00144,-7.02808,0.199805)">
                <path d="M348.309,76.567L349.877,90.983L351.807,102.264L398.805,201.169L435.928,200.973L487.494,190.085L513.544,175.112L517.42,141.367L503.009,132.852L492.286,115.878L493.995,94.226L505.733,98.368L515.53,111.625L550.061,132.433L493.554,21.154L425.329,6.654L376.338,-1.345L345.147,4.846L346.482,48.997L348.309,76.567Z" style="fill:none;stroke:#000; stroke-width: 1;"/>
            </g>
            <g transform="matrix(1.00144,0,0,1.00144,-7.02808,0.199805)">
                <path d="M432.601,320.456L428.18,340.469L417.597,351.185L410.286,369.069L416.575,376.402L421.837,386.164L424.511,399.053L423.093,412.589L416.946,425.757L419.056,440.549L427.66,445.823L447.19,435.468L452.115,411.504L452.667,379.722L463.095,360.316L465.785,351.296L464.966,322.052L449.499,287.79L432.601,320.456Z" style="fill:none;stroke:#000; stroke-width: 1;"/>
            </g>
            <g transform="matrix(1.00144,0,0,1.00144,-7.02808,0.199805)">
                <path d="M92.155,51.401L117.517,81.308L132.902,74.991L157.488,68.584L174.351,65.045L177.053,39.482L185.537,21.053L187.884,2.95L107.004,9.362L75.457,25.046L92.155,51.401Z" style="fill:none;stroke:#000; stroke-width: 1;"/>
            </g>
        </g>
        <circle cx="293.404" cy="300.632" r="300.432" style="fill:none;stroke:#000; stroke-width: 1;"/>
    </g>
</svg>
