<?xml version="1.0" encoding="UTF-8" standalone="no"?>
<!DOCTYPE svg PUBLIC "-//W3C//DTD SVG 1.1//EN" "http://www.w3.org/Graphics/SVG/1.1/DTD/svg11.dtd">
<svg width="100%" height="100%" viewBox="0 0 600 600" version="1.1" xmlns="http://www.w3.org/2000/svg" xmlns:xlink="http://www.w3.org/1999/xlink" xml:space="preserve" xmlns:serif="http://www.serif.com/" style="fill-rule:evenodd;clip-rule:evenodd;stroke-linecap:round;stroke-linejoin:round;stroke-miterlimit:1.5;">
    <g transform="matrix(0.998562,0,0,0.998562,7.01797,-0.199518)">
        <circle cx="293.404" cy="300.632" r="300.432" style="fill:none;"/>
        <clipPath id="_clip1">
            <circle cx="293.404" cy="300.632" r="300.432"/>
        </clipPath>
        <g clip-path="url(#_clip1)">
            <g transform="matrix(1.00144,0,0,1.00144,-7.02808,0.199805)">
                <path d="M1.656,271.727L39.769,278.616L44.392,291.074L37.003,302.527L35.177,321.081L27.201,338.346L9.024,356.614L57.981,456.279L59.83,469.999L76.43,474.834L93.04,472.232L104.465,462.515L116.594,452.966L131.928,452.9L150.564,448.96L159.796,436.934L156.853,418.115L155.989,403.284L146.768,402.124L137.646,411.807L123.03,395.942L106.731,377.565L107.834,360.855L119.722,359.051L144.262,367.169L149.952,378.155L163.757,384.415L182.138,380.84L203.683,384.44L214.582,390.358L222.764,397.574L239.311,403.851L245.589,415.775L240.053,427.916L254.152,431.371L260.046,445.407L293.837,502.13L299.677,517.027L312.156,522.558L320.482,504.772L321.813,468.793L324.99,449.272L343.204,437.737L357.469,421.888L370.709,422.471L383.482,435.454L389.826,449.792L401.478,445.985L411.539,456.46L420.274,469.791L423.411,455.452L434.065,464.149L447.535,479.17L460.045,475.782L470.069,461.177L475.494,435.86L467.388,420.271L456.55,403.857L454.245,381.348L463.623,370.636L483.777,366.092L498.616,365.162L523.372,354.006L539.556,335.165L553.006,312.079L551.628,283.317L544.075,263.661L548.281,249.322L564.122,252.257L572.66,261.871L579.277,276.607L580.172,297.956L574.218,309.967L584.654,315.381L596.353,321.609L609.159,320.941L615.609,308.783L613.374,292.889L608.622,273.448L601.064,261.07L604.322,245.996L614.932,224.357L632.467,195.509L642.398,160.247L625.144,153.058L603.328,161.211L584.088,146.663L582.018,119.728L594.016,109.252L623.436,99.838L648.131,96.514L660.611,104.831L666.062,129.575L666.055,149.336L677.509,147.912L687.843,129.034L705.211,111.732L714.763,106.895L729.148,83.564L742.492,68.351L762.089,47.389L735.506,25.424L724.342,13.925L702.811,20.781L689.895,8.246L667.381,11.545L633.797,0.123L608.382,8.464L576.524,-9.768L557.848,-3.41L526.126,-11.758L510.206,-6.653L466.122,-0.168L456.105,-10.432L416.164,-7.038L395.515,-23.915L360.416,-13.128L306.229,-13.944L253.843,-14.867L265.531,-36.541L256.855,-54.264L223,-55.062L201.856,-27.835L182.349,-20.446L171.953,-11.866L148.637,2.525L131.201,16.421L103.84,21.363L98.149,33.32L81.531,27.043L73.406,51.935L53.605,78.699L45.027,102.054L52.38,132.805L65.622,148.002L68.034,159.329L54.177,166.053L35.521,170.389L19.958,161.511L12.528,171.065L-3.246,185.338L-16.341,193.765L1.656,271.727Z" style="fill:none;stroke:#000;stroke-width:0.95px;"/>
            </g>
            <g transform="matrix(1.00144,0,0,1.00144,24.1751,-15.7531)">
                <path d="M588.569,333.138L577.487,347.9L574.256,369.535L571.538,392.215L558.487,407.156L546.142,411.29L523.453,426.386L508.23,442.49L519.748,447.004L529.758,441.062L547.24,440.642L562.34,434.819L574.895,427.893L584.926,411.535L598.402,400.096L595.379,382.323L594.233,362.039L607.048,343.825L603.839,328.255L588.569,333.138Z" style="fill:none;stroke:#000;stroke-width:0.95px;"/>
            </g>
            <g transform="matrix(1.00144,0,0,1.00144,-7.02808,0.199805)">
                <path d="M326.757,520.513L324.891,529.795L322.94,537.958L327.294,543.688L337.649,546.495L343.734,542.993L341.928,534.994L341.557,525.086L339.306,521.384L333.388,513.264L326.757,520.513Z" style="fill:none;stroke:#000;stroke-width:0.95px;"/>
            </g>
            <g transform="matrix(1.00144,0,0,1.00144,-7.02808,0.199805)">
                <path d="M418.25,472.725L412.883,488.707L417.792,503.11L431.09,512.826L442.257,527.053L452.371,528.085L455.613,522.543L454.893,509.583L447.456,510.594L437.388,505.041L431.315,492.634L423.247,484.555L418.25,472.725Z" style="fill:none;stroke:#000;stroke-width:0.95px;"/>
            </g>
            <g transform="matrix(1.00144,0,0,1.00144,-7.02808,0.199805)">
                <path d="M420.284,539.08L411.241,529.252L394.995,520.42L383.202,510.061L387.281,526.703L390.684,536.438L400.067,543.235L404.683,551.256L412.813,560.607L417.75,573.194L427.99,584.795L450.091,598.236L483.238,602.218L519.139,598.869L518.533,583.922L504.54,583.989L486.997,577.114L481.737,568.149L472.283,569.022L463.09,562.456L442.774,555.361L420.284,539.08Z" style="fill:none;stroke:#000;stroke-width:0.95px;"/>
            </g>
            <g transform="matrix(1.00144,0,0,1.00144,-7.02808,0.199805)">
                <path d="M508.065,381.836L498.328,393.902L497.502,407.967L508.415,408.098L516.913,405.034L516.753,395.387L508.065,381.836Z" style="fill:none;stroke:#000;stroke-width:0.95px;"/>
            </g>
        </g>
        <circle cx="293.404" cy="300.632" r="300.432" style="fill:none;stroke:#000;stroke-width:0.95px;"/>
    </g>
</svg>
