<?xml version="1.0" encoding="UTF-8" standalone="no"?>
<!DOCTYPE svg PUBLIC "-//W3C//DTD SVG 1.1//EN" "http://www.w3.org/Graphics/SVG/1.1/DTD/svg11.dtd">
<svg width="100%" height="100%" viewBox="0 0 600 600" version="1.1" xmlns="http://www.w3.org/2000/svg" xmlns:xlink="http://www.w3.org/1999/xlink" xml:space="preserve" xmlns:serif="http://www.serif.com/" style="fill-rule:evenodd;clip-rule:evenodd;stroke-linecap:round;stroke-linejoin:round;stroke-miterlimit:1.5;">
    <g transform="matrix(0.998562,0,0,0.998562,7.01797,-0.199518)">
        <circle cx="293.404" cy="300.632" r="300.432" style="fill:none;"/>
        <clipPath id="_clip1">
            <circle cx="293.404" cy="300.632" r="300.432"/>
        </clipPath>
        <g clip-path="url(#_clip1)">
            <g transform="matrix(1.00144,0,0,1.00144,29.589,-14.2355)">
                <path d="M297.475,32.108L273.803,31.718L252.326,47.554L233.849,74.239L219.884,122.82L215.901,141.329L205.004,150.971L195.156,165.084L192.276,192.188L211.711,195.242L228.07,193.58L231.457,210.972L234.182,230.398L238.469,243.382L247.28,243.376L253.058,227.781L261.752,222.783L269.883,207.313L274.882,192.835L286.917,185.994L276.756,170.532L276.959,155.861L275.218,136.965L276.236,121.161L280.961,103.981L287.174,99.789L295.42,100.29L304.297,108.755L312.667,119.423L313.006,131.038L313.438,143.127L314.5,160.71L310.456,175.356L305.912,189.102L307.412,210.005L324.357,212.314L340.672,202.432L358.139,191.753L372.623,182.739L396.35,159.263L404.371,117.984L395.456,104.425L389.484,92.12L399.357,82.44L407.692,80.354L422.541,75.869L416.845,63.595L403.877,53.164L385.739,49.584L372.317,46.701L346.818,33.193L331.519,31.357L314.678,34.579L297.475,32.108Z" style="fill:none;stroke:#000;stroke-width:0.95px;"/>
            </g>
            <g transform="matrix(1.00144,0,0,1.00144,29.589,-14.2355)">
                <path d="M350.922,196.244L357.658,206.539L355.682,218.051L348.432,224.553L333.615,229.741L318.239,230.135L314.066,238.945L318.119,246.062L326.463,251.555L325.816,260.584L315.414,264.948L310.165,254.926L303.13,259.094L302.74,266.211L300.159,274.526L300.983,284.358L302.788,293.01L296.083,297.019L280.854,301.047L257.045,300.371L243.274,301.177L231.232,289.674L222.628,271.437L230.268,253.954L224.077,251.32L229.171,235.929L221.892,214.049L213.583,221.207L209.46,233.303L203.415,244.682L198.036,250.848L197.845,260.286L198.416,269.471L200.249,286.134L198.074,301.529L186.098,301.069L170.856,307.586L161.804,317.894L146.239,326.273L119.135,326.945L103.328,329.257L90.845,328.338L81.197,315.173L75.783,324.957L61.54,323.139L63.846,337.595L69.84,345.264L66.031,353.732L64.578,363.868L62.593,376.053L55.045,389.443L46.97,401.628L41.338,414.33L52.768,426.731L78.926,441.596L91.93,445.836L122.094,453.809L129.601,431.837L138.551,422.716L145.722,429.274L159.708,433.397L181.652,434.986L192.207,446.683L203.237,463.133L221.083,478.385L244.527,495.467L264.26,504.097L265.716,517.639L262.012,539.624L257.629,547.997L264.958,551.571L271.754,544.778L282.335,532.964L276.953,512.124L286.68,507.452L302.464,514.861L311.763,507.636L302.188,496.653L283.416,482.657L269.512,471.44L276.81,466.704L266.357,459.166L251.035,446.987L224.588,430.876L229.431,417.21L239.519,417.15L249.608,422.414L266.024,429.537L271.488,433.096L274.143,440.524L283.578,445.554L290.555,454.884L303.834,456.711L315.537,461.411L338.705,468.794L340.335,478.189L347.202,492.283L358.6,502.65L370.205,506.152L384.235,501.325L394.261,497.427L401.831,499.339L399.294,488.093L391.987,484.103L381.223,482.898L381.892,467.513L388.514,466.657L386.731,453.39L394.765,445.446L405.507,440.584L419.144,441.018L432.446,446.381L437.025,440.593L431.266,430.527L423.14,421.158L413.483,407.064L413.629,383.319L423.838,367.664L437.66,364.781L448.522,368.53L459.261,376.221L467.868,372.77L473.932,361.826L485.838,369.922L498.708,377.813L517.338,382.59L530.141,393.439L542.691,403.02L542.209,416.48L539.437,427.016L570.159,427.676L596.724,431.777L600.349,371.083L606.283,328.816L612.382,272.681L609.708,207.278L600.806,154.155L573.131,70.148L547.806,34.436L528.673,10.983L510.563,24.519L491.943,26.203L478.195,39.939L472.667,57.712L459.378,72.91L447.964,88.555L435.925,101.707L424.279,96.865L416.55,106.151L404.968,115.497L396.322,159.144L372.545,182.715L350.922,196.244Z" style="fill:none;stroke:#000;stroke-width:0.95px;"/>
            </g>
            <g transform="matrix(1.00144,0,0,1.00144,-7.02808,0.199805)">
                <path d="M77.907,400.261L56.694,385.39L32.613,382.015L14.408,385.777L3.746,426.369L1.357,452.826L3.327,485.578L0.863,512L22.334,519.653L67.249,523.484L72.371,541.143L84.207,537.023L104.765,536.424L130.403,538.926L143.603,527.271L144.482,505.828L159.359,489.371L150.936,477.443L158.595,439.416L116.195,427.619L88.94,412.087L77.907,400.261Z" style="fill:none;stroke:#000;stroke-width:0.95px;"/>
            </g>
            <g transform="matrix(1.00144,0,0,1.00144,-7.02808,0.199805)">
                <path d="M163.26,211.643L173.148,197.74L172.441,188.831L160.677,186.101L153.688,180.193L170.435,170.774L156.183,163.914L145.41,167.786L137.116,174.458L133.642,190.119L127.862,203.46L134.859,209.112L133.847,221.058L136.843,229.806L132.387,239.889L125.119,247.234L121.71,258.229L127.976,269.14L119.803,278.765L108.28,287.413L131.78,288.621L153.355,279.082L164.09,272.758L173.606,281.483L185.087,284.17L181.441,268.148L188.072,259.692L176.9,249.642L169.911,233.673L163.26,211.643Z" style="fill:none;stroke:#000;stroke-width:0.95px;"/>
            </g>
            <g transform="matrix(1.00144,0,0,1.00144,-7.02808,0.199805)">
                <path d="M77.922,266.084L100.38,257.943L103.378,230.978L114.732,229.146L115.855,215.778L102.641,207.027L86.707,202.942L87.743,214.141L78.498,219.352L64.483,224.331L63.369,236.44L53.563,245.437L51.694,263.225L77.922,266.084Z" style="fill:none;stroke:#000;stroke-width:0.95px;"/>
            </g>
            <g transform="matrix(1.00144,0,0,1.00144,-7.02808,0.199805)">
                <path d="M99.548,101.45L115.555,113.389L135.593,109.853L150.694,99.742L156.658,80.112L142.034,69.666L132.894,79.338L121.247,72.019L108.784,72.417L95.543,62.215L94.176,77.998L99.548,101.45Z" style="fill:none;stroke:#000;stroke-width:0.95px;"/>
            </g>
            <g transform="matrix(1.00144,0,0,1.00144,-7.02808,0.199805)">
                <path d="M574.787,434.116L518.613,437.575L479.211,427.647L472.43,437.532L464.543,450.576L476.623,459.336L469.642,474.478L478.563,484.695L491.942,494.195L496.146,508.08L506.891,505.834L529.687,508.769L565.91,518.054L579.778,535.269L603.292,540.479L623.356,429.733L574.787,434.116Z" style="fill:none;stroke:#000;stroke-width:0.95px;"/>
            </g>
            <g transform="matrix(1.00144,0,0,1.00144,-7.02808,0.199805)">
                <path d="M273.943,232.585L272.016,238.565L268.692,244.562L267.026,251.284L274.747,255.622L278.3,252.142L277.648,247.581L280.082,242.452L283.732,239.741L273.943,232.585Z" style="fill:none;stroke:#000;stroke-width:0.95px;"/>
            </g>
            <g transform="matrix(1.00144,0,0,1.00144,-7.02808,0.199805)">
                <path d="M317.318,200.279L314.659,205.076L313.1,213.442L314.416,216.309L316.017,213.067L317.725,208.996L320.034,206.705L317.318,200.279Z" style="fill:none;stroke:#000;stroke-width:0.95px;"/>
            </g>
            <g transform="matrix(1.00144,0,0,1.00144,-7.02808,0.199805)">
                <path d="M214.083,438.343L216.712,447.467L216.901,455.882L216.581,458.897L212.541,462.979L210.202,460.154L207.923,450.973L206.225,444.964L211.807,445.087L214.083,438.343Z" style="fill:none;stroke:#000;stroke-width:0.95px;"/>
            </g>
            <g transform="matrix(1.00144,0,0,1.00144,-7.02808,0.199805)">
                <path d="M211.94,467.621L209.235,465.554L209.983,470.23L210.83,474.562L210.716,477.341L211.643,485.93L211.784,490.043L215.302,487.133L218.008,486.879L218.831,483.152L222.577,486.635L224.729,483.352L223.92,479.096L222.753,472.003L222.562,462.456L211.94,467.621Z" style="fill:none;stroke:#000;stroke-width:0.95px;"/>
            </g>
            <g transform="matrix(1.00144,0,0,1.00144,-7.02808,0.199805)">
                <path d="M291.944,546.068L291.16,530.454L281.571,539.686L275.48,541.312L267.985,540.157L263.583,539.55L258.498,537.358L253.057,535.511L249.537,539.538L248.945,542.999L252.175,543.993L254.886,545.053L260.546,546.541L262.497,549.752L267.938,553.229L277.464,556.431L282.908,559.294L288.878,563.734L288.829,559.573L287.417,554.349L291.944,546.068Z" style="fill:none;stroke:#000;stroke-width:0.95px;"/>
            </g>
            <g transform="matrix(1.00144,0,0,1.00144,-7.02808,0.199805)">
                <path d="M451.599,502.435L443.016,505.664L428.772,512.238L431.698,516.644L438.665,514.411L450.49,511.169L458.909,513.219L465.316,500.891L451.599,502.435Z" style="fill:none;stroke:#000;stroke-width:0.95px;"/>
            </g>
            <g transform="matrix(1.00144,0,0,1.00144,-7.02808,0.199805)">
                <path d="M454.872,478.767L453.642,480.634L454.474,483.467L456.663,482.922L454.872,478.767Z" style="fill:none;stroke:#000;stroke-width:0.95px;"/>
            </g>
            <g transform="matrix(1.00144,0,0,1.00144,-7.02808,0.199805)">
                <path d="M180.208,507.6L174.816,510.37L169.913,511.215L170.049,515.007L174.996,515.773L178.457,518.39L180.208,507.6Z" style="fill:none;stroke:#000;stroke-width:0.95px;"/>
            </g>
        </g>
        <circle cx="293.404" cy="300.632" r="300.432" style="fill:none;stroke:#000;stroke-width:0.95px;"/>
    </g>
</svg>
