<?xml version="1.0" encoding="UTF-8" standalone="no"?>
<!DOCTYPE svg PUBLIC "-//W3C//DTD SVG 1.1//EN" "http://www.w3.org/Graphics/SVG/1.1/DTD/svg11.dtd">
<svg width="100%" height="100%" viewBox="0 0 600 600" version="1.1" xmlns="http://www.w3.org/2000/svg" xmlns:xlink="http://www.w3.org/1999/xlink" xml:space="preserve" xmlns:serif="http://www.serif.com/" style="fill-rule:evenodd;clip-rule:evenodd;stroke-linecap:round;stroke-linejoin:round;stroke-miterlimit:1.5;">
    <g transform="matrix(0.998562,0,0,0.998562,7.01797,-0.199518)">
        <circle cx="293.404" cy="300.632" r="300.432" style="fill:none;"/>
        <clipPath id="_clip1">
            <circle cx="293.404" cy="300.632" r="300.432"/>
        </clipPath>
        <g clip-path="url(#_clip1)">
            <g transform="matrix(1.00144,0,0,1.00144,-7.02808,0.199805)">
                <path d="M167.767,113.721L158.554,104.912L152.544,90.163L142.093,77.656L128.669,76.315L124.085,90.013L117.988,85.222L104.286,78.457L99.33,89.347L101.227,97.088L108.674,108.364L103.154,112.506L92.509,116.41L73.555,111.343L66.503,119.081L65.375,132.057L60.546,138.733L69.387,141.796L72.804,150.579L68.549,157.741L52.323,159.374L41.185,159.982L52.778,167.103L60.913,166.018L72.056,166.062L79.313,170.03L90.171,182.99L97.314,197.975L96.475,212.596L101.709,226.057L102.809,244.33L98.797,255.741L94.046,267.865L93.644,281.411L99.469,300.97L109.039,313.921L112.432,329.157L117.388,349.222L127.596,384.846L132.057,394.66L137.453,389.137L135.177,379.563L128.986,364.644L128.664,345.61L127.96,332.282L126.623,320.86L134.964,319.379L138.159,326.061L140.721,338.385L145.169,348.442L152.871,353.597L157.944,363.296L167.84,375.11L168.096,386.256L161.028,395.272L168.082,406.374L181.211,419.584L201.221,432.249L218.581,443.188L237.526,452.494L254.69,468.571L266.829,471.936L282.313,477.472L291.077,487.857L295.476,499.733L307.243,511.847L316.762,511.814L326.783,516.039L332.005,509.591L337.189,515.246L335.372,524.092L336.992,533.553L344.422,529.546L350.703,535.262L359.36,541.253L391.052,553.26L391.133,545.212L398.832,551.352L404.048,544.256L414.851,548.711L417.982,541.589L411.53,535.086L402.751,532.867L395.325,537.293L383.546,537.218L364.911,531.913L353.888,523.703L357.186,512.186L359.009,496.353L359.056,477.581L353.673,473.413L343.833,475.855L328.428,473.072L314.17,474.323L313.141,455.673L320.811,442.702L328.243,432.683L327.832,420.385L318.369,421.439L311.541,424.173L300.619,428.19L292.527,430.47L290.494,438.738L285.974,447.235L278.004,449.364L260.23,438.921L256.593,425.244L256.063,403.25L263.952,386.846L266.07,370.587L269.503,352.706L273.905,344.242L282.906,347.9L292.957,343.518L310.78,339.797L330.592,338.708L343.044,341.785L350.592,335.596L364.151,339.842L370.114,347.068L378.97,358.302L389.413,365.444L390.943,383.268L390.253,395.188L392.19,406.673L401.221,410.315L409.463,405.873L415.932,394.256L413.03,381.723L405.763,362.423L400.542,349.859L397.706,333.379L412.816,318.509L420.513,302.886L429.755,298.888L436.424,284.033L445.53,273.063L439.917,268.29L427.279,252.16L444.805,238.342L454.422,225.756L455.615,207.669L451.096,191.294L442.576,197.272L440.608,188.168L446.918,179.438L459.935,172.545L474.17,168.418L489.69,167.202L499.14,161.435L496.392,150.71L487.502,140.085L475.304,123.697L461.94,116.553L453.188,105.93L438.406,98.484L437.25,106.324L432.261,115.241L422.617,113.387L410.814,106.438L391.934,96.77L382.298,101.048L377.876,108.402L377.307,119.056L378.78,127.991L385.216,141.375L397.219,149.127L395.967,156.628L391.561,168.666L376.901,173.657L372.778,181.53L373.648,189.287L363.61,196.535L355.76,180.113L355.482,159.375L343.404,154.937L324.199,154.242L312.524,153.778L303.367,144.099L296.77,131.79L299.786,120.936L309.061,112.288L315.993,106.885L311.893,94.613L297.545,87.1L283.248,92.251L270.94,78.149L257.113,86.949L235.322,94.965L224.273,87.815L214.64,95.013L206.316,101.461L167.767,113.721Z" style="fill:none;stroke:#000;stroke-width:0.95px;"/>
            </g>
            <g transform="matrix(1.00144,0,0,1.00144,-7.02808,0.199805)">
                <path d="M367.505,86.649L389.976,81.993L404.939,89.403L415.311,82.542L404.494,64.348L395.554,50.854L377.803,53.399L355.443,51.064L336.844,38.134L320.38,41.553L306.203,50.153L319.897,63.943L330.229,75.196L367.505,86.649Z" style="fill:none;stroke:#000;stroke-width:0.95px;"/>
            </g>
            <g transform="matrix(1.00144,0,0,1.00144,-7.02808,0.199805)">
                <path d="M264.176,51.736L251.259,61.833L229.566,69.632L194.698,62.133L186.032,47.729L189.453,29.104L201.964,45.642L217.736,40.094L224.666,49.849L255.066,39.356L264.176,51.736Z" style="fill:none;stroke:#000;stroke-width:0.95px;"/>
            </g>
            <g transform="matrix(1.00144,0,0,1.00144,-7.02808,0.199805)">
                <path d="M501.671,176.318L489.21,184.955L472.954,197.988L473.775,220.239L490.678,222.875L507.488,214.718L529.227,200.328L539.5,180.072L520.434,182.601L514.381,172.306L501.671,176.318Z" style="fill:none;stroke:#000;stroke-width:0.95px;"/>
            </g>
            <g transform="matrix(1.00144,0,0,1.00144,-2.61868,-7.73192)">
                <path d="M464.508,235.287L445.895,245.901L436.879,252.493L440.478,261.947L448.211,275.972L448.613,297.987L464.846,291.485L474.887,278.473L466.568,255.912L464.508,235.287Z" style="fill:none;stroke:#000;stroke-width:0.95px;"/>
            </g>
            <g transform="matrix(1.00144,0,0,1.00144,-7.02808,0.199805)">
                <path d="M430.794,434.532L407.118,428.859L383.036,426.896L362.34,433.232L350.523,443.295L365.928,448.022L374.485,443.154L397.306,438.718L414.57,445.579L434.55,454.153L440.971,442.099L430.794,434.532Z" style="fill:none;stroke:#000;stroke-width:0.95px;"/>
            </g>
            <g transform="matrix(1.00144,0,0,1.00144,-16.5191,2.78876)">
                <path d="M467.939,440.455L459.849,446.31L457.122,456.912L466.695,460.173L478.945,457.206L494.919,454.862L508.707,454.858L507.023,445.954L496.149,438.158L479.115,427.96L467.939,440.455Z" style="fill:none;stroke:#000;stroke-width:0.95px;"/>
            </g>
            <g transform="matrix(1.00144,0,0,1.00144,-7.02808,0.199805)">
                <path d="M534.611,441.911L524.752,445.835L515.221,448.323L509.936,457.479L516.591,457.639L521.457,453.73L528.973,451.653L534.611,441.911Z" style="fill:none;stroke:#000;stroke-width:0.95px;"/>
            </g>
            <g transform="matrix(1.00144,0,0,1.00144,-7.02808,0.199805)">
                <path d="M420.812,463.17L407.633,467.653L406.292,474.916L416.796,473.412L428.921,474.416L420.812,463.17Z" style="fill:none;stroke:#000;stroke-width:0.95px;"/>
            </g>
            <g transform="matrix(1.00144,0,0,1.00144,-7.02808,0.199805)">
                <path d="M237.827,9.207L249.464,23.749L282.158,24.039L304.886,26.092L324.395,18.673L313.213,10.379L298.658,5.803L277.185,11.097L237.827,9.207Z" style="fill:none;stroke:#000;stroke-width:0.95px;"/>
            </g>
            <g transform="matrix(1.00144,0,0,1.00144,-7.02808,0.199805)">
                <path d="M355.98,15.882L359.648,28.933L379.308,36.272L378.654,46.497L398.714,47.227L413.997,58.158L429.418,76.555L446.53,68.82L459.873,66.371L462.286,53.464L475.838,40.409L447.306,20.681L361.241,2.898L355.98,15.882Z" style="fill:none;stroke:#000;stroke-width:0.95px;"/>
            </g>
        </g>
        <circle cx="293.404" cy="300.632" r="300.432" style="fill:none;stroke:#000;stroke-width:0.95px;"/>
    </g>
</svg>
