<?xml version="1.0" encoding="UTF-8" standalone="no"?>
<!DOCTYPE svg PUBLIC "-//W3C//DTD SVG 1.1//EN" "http://www.w3.org/Graphics/SVG/1.1/DTD/svg11.dtd">
<svg width="100%" height="100%" viewBox="0 0 600 600" version="1.1" xmlns="http://www.w3.org/2000/svg" xmlns:xlink="http://www.w3.org/1999/xlink" xml:space="preserve" xmlns:serif="http://www.serif.com/" style="fill-rule:evenodd;clip-rule:evenodd;stroke-linecap:round;stroke-linejoin:round;stroke-miterlimit:1.5;">
    <g transform="matrix(0.998562,0,0,0.998562,7.01797,-0.199518)">
        <circle cx="293.404" cy="300.632" r="300.432" style="fill:none;"/>
        <clipPath id="_clip1">
            <circle cx="293.404" cy="300.632" r="300.432"/>
        </clipPath>
        <g clip-path="url(#_clip1)">
            <g transform="matrix(1.11473,0,0,1.00144,-16.4014,0.199805)">
                <path d="M202.898,52.832L191.111,64.62L178.588,71.404L166.078,89.432L152.77,99.648L141.865,100.132L129.029,113.247L128.759,126.29L123.338,134.861L121.721,147.611L120.171,157.886L110.723,159.803L107.131,173.231L97.254,181.51L91.295,195.833L82.738,211.497L88.923,220.586L95.169,234.494L109.595,243.642L118.692,260.104L133.758,274.924L156.629,285.767L164.848,305.214L179.302,319.255L190.059,336.378L195.947,355.975L194.275,370.233L195.936,388.103L198.783,402.411L199.077,415.297L197.524,448.094L198.868,466.779L201.477,482.027L200.815,499.64L204.576,516.428L209.144,528.596L220.734,539.529L238.2,546.258L239.693,534.664L233.761,528.908L235.055,514.835L245.027,496.643L248.861,476.781L258.26,452.873L263.494,427.542L267.833,404.136L278.843,406.248L297.006,402.507L295.587,387.552L314.605,381.71L323.295,364.935L321.894,349.95L312.306,346.455L305.846,336.593L317.208,333.136L328.461,333.699L339.114,335.394L355.652,330.324L374.664,320.789L391.388,306.85L398.659,291.411L403.545,268.127L403.24,252.985L410.933,246.299L432.12,241.803L438.266,223.547L443.564,201.597L443.545,173.464L435.416,156.944L416.081,152.873L396.313,144.176L380.983,129.382L367.3,130.309L358.218,112.997L344.912,108.689L332.782,96.496L318.678,74.327L298.239,66.743L277.63,68.456L265.061,52.399L242.864,47.645L202.898,52.832Z" style="fill:none;stroke:#000;stroke-width:0.9px;"/>
            </g>
            <g transform="matrix(1.00144,0,0,1.00144,15.5196,0.199805)">
                <path d="M296.465,502.448L273.464,509.183L274.708,518.084L283.569,515.952L296.465,502.448Z" style="fill:none;stroke:#000;stroke-width:0.95px;"/>
            </g>
            <g transform="matrix(1.00144,0,0,1.00144,-0.731362,0.750065)">
                <path d="M41.992,66.125L56.662,72.442L67.613,72.4L80.613,72.117L88.644,81.442L94.108,100.549L100.631,109.622L107.213,102.899L115.816,106.97L128.662,111.936L138.217,103.203L127.694,100.408L118.953,96.72L111.563,89.337L103.219,88.129L96.845,77.336L94.255,62.036L83.892,48.737L56.171,27.766L46.019,19.065L41.992,66.125Z" style="fill:none;stroke:#000;stroke-width:0.95px;"/>
            </g>
        </g>
        <circle cx="293.404" cy="300.632" r="300.432" style="fill:none;stroke:#000;stroke-width:0.95px;"/>
    </g>
</svg>
