<!-- artsakh — source: https://upload.wikimedia.org/wikipedia/commons/3/3d/Flag_of_Artsakh.svg
     license: PD — official insignia -->
<svg id="flag-icons-artsakh" xmlns="http://www.w3.org/2000/svg" viewBox="0 0 36 18">
<path fill="#F2A800" d="M0 0h36v18H0z"/>
<path fill="#D90012" d="M0 0h36v9H0z"/>
<path fill="#0033A0" d="M0 6h21l2.2 2.2 4.5-4.5 2.3 2.3h6v6h-6l-2.3 2.3-4.5-4.5-2.2 2.2H0z"/>
<path fill="#FFF" d="M36 0h-6v2h-3v2h-3v2h-3v2h-3v2h3v2h3v2h3v2h3v2h6v-2h-3v-2h-3v-2h-3v-2h-3V8h3V6h3V4h3V2h3z"/>
</svg>
