<?xml version="1.0" encoding="utf-8"?>
<!-- Generator: Adobe Illustrator 22.0.1, SVG Export Plug-In . SVG Version: 6.00 Build 0)  -->
<svg version="1.1" id="Layer_1" xmlns="http://www.w3.org/2000/svg" xmlns:xlink="http://www.w3.org/1999/xlink" x="0px" y="0px"
	 viewBox="0 0 699.8 132.5" style="enable-background:new 0 0 699.8 132.5;" xml:space="preserve">
<g>
	<path d="M126.5,19.5h-17l-3.9-10.3c-1.9-5-7.8-9.1-13.1-9.1H53.5c-5.3,0-11.2,4.1-13.1,9.1l-3.9,10.3h-17C8.7,19.5,0,28.2,0,38.9
		V107c0,10.7,8.7,19.5,19.5,19.5h107c10.7,0,19.5-8.7,19.5-19.5V38.9C145.9,28.2,137.2,19.5,126.5,19.5z M73,107
		c-18.8,0-34-15.3-34-34c0-18.8,15.3-34,34-34s34,15.3,34,34C107,91.7,91.7,107,73,107z"/>
	<ellipse transform="matrix(4.463922e-03 -1 1 4.463922e-03 -0.3174 145.573)" cx="73" cy="72.9" rx="21.9" ry="21.9"/>
	<path d="M252.6,80.4c0,10.8-6.4,17.9-17.7,17.9c-11.4,0-17.8-7.1-17.8-17.9V27.4h-17.7v54.7c0,18.6,13.8,31.3,35.4,31.3
		c21.6,0,35.4-12.7,35.4-31.3V27.4h-17.7V80.4z"/>
	<path d="M318.4,48c-9.7,0-16.3,4.6-19.6,12.4h-0.4V49.2h-16.5V112H299V76c0-8.1,4.9-13.8,12.5-13.8s11.5,4.7,11.5,12.9V112h17.1
		V71.5C340.2,56.8,332.3,48,318.4,48z"/>
	<path d="M386.6,75.7l-12-2.6c-5.5-1.3-8.2-3.4-8.2-6.5c0-4,3.9-6.7,9.8-6.7c6.3,0,10.4,3.1,10.7,8.1h15.8
		c-0.2-12.2-10.5-20.2-26.2-20.2c-16.1,0-26.5,7.9-26.5,19.8c0,9.3,6.1,15.5,18,18.2l11.6,2.6c5.6,1.3,7.7,3.1,7.7,6.3
		c0,4.1-3.9,6.7-10.4,6.7c-6.8,0-11-3-11.8-8.3h-16.7c0.9,12.2,11.2,20.3,28,20.3c16.6,0,27.9-8.1,27.9-20.5
		C404.3,83.5,399.2,78.5,386.6,75.7z"/>
	<path d="M449.5,48.2c-9.1,0-16.1,4.6-19.5,12h-0.4v-11h-16.9v83.3h17.1v-31.1h0.4c3.3,7.1,10.4,11.5,19.5,11.5
		c15.7,0,25.4-12.2,25.4-32.4C475.2,60.3,465.4,48.2,449.5,48.2z M443.8,99.2c-8.4,0-13.9-7.3-13.9-18.6c0-11.2,5.5-18.7,13.9-18.7
		c8.6,0,13.9,7.3,13.9,18.7C457.7,92,452.3,99.2,443.8,99.2z"/>
	<rect x="484.4" y="27.4" width="17.1" height="84.6"/>
	<path d="M541.1,47.8c-16.6,0-27,8.4-27.7,20.6h15.6c0.8-4.6,4.9-7.8,11.2-7.8c6.4,0,10.5,3.4,10.5,9.3V74L535.1,75
		c-15.6,0.9-24.4,7.6-24.4,19c0,11.3,9.1,19,21,19c7.9,0,15.6-3.9,19.2-10.6h0.4v9.6h16.5V68.8C567.7,56.2,557.3,47.8,541.1,47.8z
		 M550.9,89c0,6.8-6.2,11.7-13.6,11.7c-5.8,0-9.7-2.9-9.7-7.6c0-4.5,3.6-7.3,10-7.8l13.2-0.8V89z"/>
	<path d="M614.4,75.7l-12-2.6c-5.5-1.3-8.2-3.4-8.2-6.5c0-4,3.9-6.7,9.8-6.7c6.3,0,10.4,3.1,10.7,8.1h15.8
		c-0.2-12.2-10.5-20.2-26.2-20.2c-16.1,0-26.5,7.9-26.5,19.8c0,9.3,6.1,15.5,18,18.2l11.6,2.6c5.6,1.3,7.7,3.1,7.7,6.3
		c0,4.1-3.9,6.7-10.4,6.7c-6.8,0-11-3-11.8-8.3h-16.7c0.9,12.2,11.2,20.3,28,20.3c16.6,0,27.9-8.1,27.9-20.5
		C632.1,83.5,627,78.5,614.4,75.7z"/>
	<path d="M677.9,48c-9.6,0-16.4,4.5-19.7,12.4h-0.4V27.4H641V112h17.1V76.1c0-8.3,4.7-13.9,12.8-13.9c7.8,0,11.8,4.9,11.8,13V112
		h17.1V71.6C699.8,57,691.8,48,677.9,48z"/>
</g>
</svg>
