<svg viewBox="0 0 194 38" fill="none" xmlns="http://www.w3.org/2000/svg">
<path d="M0.65625 37C1.4375 34.3906 2.49219 28.6094 3.82031 19.6562C4.47656 15.2344 5.00781 11.1094 5.41406 7.28125C4.61719 5.78125 3.875 4.58594 3.1875 3.69531C4.125 3.58594 5.07812 3.36719 6.04688 3.03906C7.46875 2.55469 8.48438 2.07031 9.09375 1.58594V1.63281L9.14062 1.58594L9.11719 1.63281C9.58594 3.53906 11.2891 9.15625 14.2266 18.4844C16.3516 25.2031 17.8281 29.0547 18.6562 30.0391C19.5156 28.8047 21.1875 24.8203 23.6719 18.0859C26.0156 11.7266 27.4688 7.46875 28.0312 5.3125C27.9531 5.09375 27.8047 4.78125 27.5859 4.375L27.1875 3.625C29.0781 3.40625 30.9922 2.74219 32.9297 1.63281L33.0938 1.53906V1.5625V1.58594C33.0938 6.60156 33.5391 12.1562 34.4297 18.25C35.5078 25.5938 36.6484 30.8438 37.8516 34C38.0547 34.5312 38.1953 34.8125 38.2734 34.8438C37.2109 34.9688 36.2578 35.1875 35.4141 35.5C34.0547 36 33.0391 36.5 32.3672 37C32.3984 36.7031 32.4141 36.3359 32.4141 35.8984C32.3828 32.9453 31.8359 27.1875 30.7734 18.625C30.3359 15.0781 29.8516 12.1016 29.3203 9.69531L25.8281 18.2266C23.375 24.4453 21.8516 29.6953 21.2578 33.9766C21.1953 34.4297 21.1562 34.6641 21.1406 34.6797L21.1641 34.9141C19.2734 35.1328 17.3594 35.7969 15.4219 36.9062L15.2578 37C14.7578 32.2812 13.1719 26.3438 10.5 19.1875C9.23438 15.7969 8.0625 12.9141 6.98438 10.5391C6.54688 13.1484 6.08594 16.2188 5.60156 19.75C4.85156 25.125 4.38281 30 4.19531 34.375L4.17188 34.9141C2.98438 35.1484 1.84375 35.8125 0.75 36.9062L0.65625 37ZM46.8281 13.9375L46.8047 13.9609C46.3516 14.8047 45.8672 16.2188 45.3516 18.2031C44.9766 19.625 44.7891 20.9531 44.7891 22.1875C44.7891 22.6719 44.8281 23.1797 44.9062 23.7109C45.1094 25.0859 45.6875 26.4844 46.6406 27.9062C47.625 29.3906 48.9766 30.5234 50.6953 31.3047C52.3047 32.0391 54.6094 32.75 57.6094 33.4375L57.6328 33.4141C58.0078 32.5703 58.4531 31.0234 58.9688 28.7734C59.2812 27.4141 59.4375 26.1797 59.4375 25.0703C59.4375 24.4766 59.3984 23.9531 59.3203 23.5C59.0859 22.125 58.5078 20.7266 57.5859 19.3047C56.8359 18.1484 55.4844 17.0234 53.5312 15.9297C52 15.0703 49.7656 14.4062 46.8281 13.9375ZM52.5469 37.0938C51.6094 36.8594 50.5 36.4062 49.2188 35.7344C47.9531 35.0625 46.7812 34.2109 45.7031 33.1797C44.3281 31.8516 43.3672 30.4062 42.8203 28.8438C42.1484 27.25 41.8125 25.6094 41.8125 23.9219C41.8125 23.875 41.8125 23.8438 41.8125 23.8281C41.8125 22.1562 42.1953 20.4297 42.9609 18.6484C43.5703 17.2266 44.3438 16.0156 45.2812 15.0156C45.7188 14.5469 46.1875 14.125 46.6875 13.75L51.6562 10.4922C52.4219 10.6953 53.5391 11.1719 55.0078 11.9219C56.1016 12.4844 57.2656 13.3281 58.5 14.4531C59.8906 15.7969 60.8672 17.2891 61.4297 18.9297C62.0547 20.6797 62.375 22.3047 62.3906 23.8047V23.8984C62.3906 26.0547 62.0469 27.7656 61.3594 29.0312C60.2969 30.9844 59.4062 32.2812 58.6875 32.9219C58.2969 33.2656 58.0312 33.5469 57.8906 33.7656L52.5469 37.0938ZM68.25 37C68.8438 32.3125 69.1406 28.4219 69.1406 25.3281C69.1406 23.7812 69.1328 22.9375 69.1172 22.7969C69.0859 19.1562 68.8359 15.8828 68.3672 12.9766L68.25 12.6016C70.1406 12.3828 72.0547 11.7187 73.9922 10.6094L74.1562 10.5156C73.8438 11.4375 73.5078 12.5 73.1484 13.7031L78.2812 10.5156C79.1719 10.75 80.2734 11.2031 81.5859 11.875C82.8047 12.5156 83.9766 13.3672 85.1016 14.4297C86.4766 15.7422 87.4453 17.1875 88.0078 18.7656C88.6172 20.2656 88.9453 21.9062 88.9922 23.6875C89.1328 28.2344 89.4219 31.6719 89.8594 34L90.0469 34.8438C89 34.9688 88.0469 35.1875 87.1875 35.5C85.8281 36 84.8125 36.5 84.1406 37C84.75 32.9062 85.0547 28.9453 85.0547 25.1172C85.0391 24.6172 85.0312 24.1719 85.0312 23.7812C85.0312 21.9844 84.75 20.625 84.1875 19.7031C83.25 18.3281 81.8906 17.1953 80.1094 16.3047C78.5469 15.5234 76.2344 14.8203 73.1719 14.1953H73.1484C73.0391 15.3359 72.9844 17.8672 72.9844 21.7891V22.6094C72.9844 27 73.3125 30.7969 73.9688 34L74.1562 34.8438C73.0938 34.9688 72.1406 35.1875 71.2969 35.5C69.9375 36 68.9219 36.5 68.25 37ZM110.719 20.9922C109.938 18.8828 108.547 17.1875 106.547 15.9062C105.281 15.0938 103.016 14.4062 99.75 13.8438L99.7266 13.8672C99.2891 14.6953 98.8047 16.1094 98.2734 18.1094C97.8984 19.5156 97.7109 20.8438 97.7109 22.0938C97.7109 22.5938 97.75 23.1016 97.8281 23.6172C98.0312 24.9453 98.6094 26.3438 99.5625 27.8125C100.5 29.2656 101.852 30.3984 103.617 31.2109C105.164 31.9297 107.367 32.6172 110.227 33.2734C110.57 30.0547 110.758 26.4375 110.789 22.4219C110.773 21.9375 110.75 21.4609 110.719 20.9922ZM115.664 1.58594C114.992 6.27344 114.656 11.5234 114.656 17.3359C114.656 17.9141 114.664 18.7578 114.68 19.8672C114.773 26.5078 115.055 31.2578 115.523 34.1172L115.664 34.9141C113.773 35.1328 111.859 35.7969 109.922 36.9062L109.758 37C109.898 36.0625 110.031 35.0859 110.156 34.0703L105.469 37C104.547 36.7656 103.438 36.3125 102.141 35.6406C100.672 34.875 99.5 34.0234 98.625 33.0859C97.375 31.7422 96.4141 30.2969 95.7422 28.75C95.0703 27.3438 94.7344 25.7031 94.7344 23.8281C94.7344 23.7656 94.7344 23.7344 94.7344 23.7344C94.8125 21.9219 95.1953 20.1953 95.8828 18.5547C96.3672 17.3984 97.1406 16.1875 98.2031 14.9219C98.5312 14.5312 99 14.1094 99.6094 13.6562L104.578 10.5156C105.484 10.6875 106.602 11.125 107.93 11.8281C108.789 12.2812 109.688 12.8906 110.625 13.6562C110.5 10.6875 110.258 7.625 109.898 4.46875L109.805 4.02344L109.758 3.74219V3.67188C111.633 3.45313 113.547 2.78906 115.5 1.67969L115.664 1.58594ZM122.672 9.25C122.969 7.96875 123.117 6.625 123.117 5.21875C123.117 4.79688 123.102 4.375 123.07 3.95312C123.055 3.53125 123.016 3.10938 122.953 2.6875L122.812 2.19531C124.828 1.99219 126.867 1.29688 128.93 0.109375L129.094 0.015625C128.844 0.90625 128.719 2.17969 128.719 3.83594C128.719 4.27344 128.734 4.75781 128.766 5.28906C128.812 5.80469 128.875 6.375 128.953 7C128.312 7.07812 127.672 7.20313 127.031 7.375C126.406 7.53125 125.812 7.71875 125.25 7.9375C124.703 8.14063 124.203 8.35938 123.75 8.59375C123.312 8.82812 122.953 9.04687 122.672 9.25ZM123.07 37C123.367 34.6406 123.586 32.5 123.727 30.5781C123.883 28.6406 123.961 26.8906 123.961 25.3281C123.961 24.0625 123.945 22.8828 123.914 21.7891C123.898 20.6797 123.859 19.6328 123.797 18.6484C123.734 17.6484 123.648 16.6875 123.539 15.7656C123.445 14.8438 123.328 13.9141 123.188 12.9766L123.07 12.6016C124.023 12.4922 124.969 12.2734 125.906 11.9453C126.859 11.6016 127.828 11.1562 128.812 10.6094L128.977 10.5156C128.195 13.2188 127.805 16.9766 127.805 21.7891V22.6094C127.805 27 128.133 30.7969 128.789 34L128.977 34.8438C128.305 34.9219 127.664 35.0469 127.055 35.2188C126.461 35.375 125.906 35.5547 125.391 35.7578C124.891 35.9609 124.438 36.1719 124.031 36.3906C123.641 36.6094 123.32 36.8125 123.07 37ZM135.492 17.3125C135.898 16.375 136.586 15.5156 137.555 14.7344L138.656 13.8438L144 10.5156C144.891 10.75 145.992 11.2031 147.305 11.875C148.555 12.5156 149.727 13.3672 150.82 14.4297C152.195 15.7734 153.164 17.2188 153.727 18.7656C154.336 20.2656 154.664 21.9062 154.711 23.6875C154.82 28.125 155.109 31.5625 155.578 34L155.766 34.8438C154.703 34.9688 153.75 35.1875 152.906 35.5C151.547 36 150.531 36.5 149.859 37C150.453 32.7812 150.75 28.5859 150.75 24.4141C150.75 24.2109 150.75 24 150.75 23.7812C150.75 22 150.469 20.6406 149.906 19.7031C148.922 18.25 147.562 17.1172 145.828 16.3047C144.266 15.5703 141.953 14.8672 138.891 14.1953C138.641 14.5859 138.516 15.2656 138.516 16.2344C138.516 16.8438 138.617 17.6406 138.82 18.625L135.492 17.3125ZM144.914 37C144.023 36.6875 142.609 36.0312 140.672 35.0312C139.219 34.2812 137.812 33.1562 136.453 31.6562C135.453 30.0938 134.953 28.6484 134.953 27.3203C134.953 27.2891 134.953 27.25 134.953 27.2031C135.188 25.3125 136.062 23.7812 137.578 22.6094C140.141 20.6406 143.352 19.6406 147.211 19.6094C142.445 21.3594 139.688 23.3125 138.938 25.4688C138.781 25.9219 138.703 26.3594 138.703 26.7812C138.703 27.5 138.953 28.1406 139.453 28.7031C140.797 30.0625 141.93 30.9688 142.852 31.4219C145.68 32.8125 148.008 33.5938 149.836 33.7656L144.914 37ZM161.625 37C162.297 32.3125 162.633 27.0625 162.633 21.25C162.633 20.3906 162.625 19.5469 162.609 18.7188C162.484 11.875 162.203 7.125 161.766 4.46875L161.625 3.67188C163.531 3.45313 165.445 2.78906 167.367 1.67969L167.531 1.58594C166.828 6.02344 166.477 11.3984 166.477 17.7109C166.477 17.9766 166.477 18.25 166.477 18.5312C166.477 26.0312 166.766 31.1875 167.344 34L167.531 34.8438C166.469 34.9688 165.516 35.1875 164.672 35.5C163.312 36 162.297 36.5 161.625 37ZM184.125 37.0938C183.203 36.875 182.094 36.4219 180.797 35.7344C179.5 35.0312 178.328 34.1797 177.281 33.1797C175.906 31.8516 174.945 30.4062 174.398 28.8438C173.867 27.5469 173.531 25.9062 173.391 23.9219V23.8281C173.391 22.1562 173.773 20.4297 174.539 18.6484C175.117 17.2891 175.891 16.0781 176.859 15.0156C177.266 14.5781 177.734 14.1562 178.266 13.75L183.188 10.5156C184.016 10.7969 185.43 11.4531 187.43 12.4844C188.883 13.2344 190.289 14.3594 191.648 15.8594C192.648 17.4219 193.148 18.8672 193.148 20.1953C193.148 20.2266 193.148 20.2656 193.148 20.3125C192.914 22.2188 192.039 23.75 190.523 24.9062C187.945 26.875 184.734 27.875 180.891 27.9062C185.734 26.25 188.602 24.3359 189.492 22.1641C189.68 21.7109 189.773 21.2656 189.773 20.8281C189.773 20.8125 189.773 20.7969 189.773 20.7812C189.773 20.7656 189.773 20.75 189.773 20.7344C189.773 20.0781 189.5 19.4375 188.953 18.8125C188.094 17.7969 186.859 16.8906 185.25 16.0938C182.5 14.7344 180.266 13.9688 178.547 13.7969C177.953 14.7656 177.414 16.2344 176.93 18.2031C176.555 19.7344 176.367 21.0625 176.367 22.1875C176.367 22.7188 176.406 23.2266 176.484 23.7109C176.703 25.1016 177.281 26.5 178.219 27.9062C179.188 29.3438 180.539 30.4766 182.273 31.3047C183.773 32.0234 186.078 32.7344 189.188 33.4375L189.211 33.4141C189.461 33.0234 189.586 32.3438 189.586 31.375C189.586 30.7656 189.484 29.9688 189.281 28.9844L192.609 30.2969C192.188 31.25 191.5 32.1094 190.547 32.875C189.828 33.4531 189.469 33.75 189.469 33.7656L184.125 37.0938Z" fill="currentColor"/>
</svg>
