<svg width="68" height="127" viewBox="0 -22 68 127" fill="none" xmlns="http://www.w3.org/2000/svg">
<!-- The pawn, machined: a squared head and collar over the pawn's own body,
     wearing an antenna. A player first, computer-driven second. The mast is
     deliberately stout — it is the whole tell at roster size (~20px). -->
<circle cx="34" cy="-15" r="6" fill="currentColor"/>
<rect x="31.4" y="-12" width="5.2" height="15" rx="2.6" fill="currentColor"/>
<rect x="12" y="2" width="44" height="34" rx="7" fill="currentColor"/>
<rect x="18.5" y="40" width="31" height="9.5" rx="3.6" fill="currentColor"/>
<path fill-rule="evenodd" clip-rule="evenodd" d="M23.4 53.5C22.75 58.6 21.2 65.5 18.75 73.7C13.28 91.95 10.69 97.83 8.13 97.83C3.43 97.83 0.95 102.59 1.41 110.76L1.83 118.34H34.05H66.27L66.69 110.76C67.15 102.59 64.67 97.83 59.97 97.83C58.29 97.83 56.7 95.53 54.84 90.41C51.3 80.65 48.25 70.3 46.6 62.4C46.03 59.6 45.6 56.6 45.35 53.5H23.4Z" fill="currentColor"/>
</svg>
