<svg viewBox="0 0 600 600" xmlns="http://www.w3.org/2000/svg" xml:space="preserve" style="fill-rule:evenodd;clip-rule:evenodd;stroke-linecap:round;stroke-linejoin:bevel;stroke-miterlimit:1.5"><path d="M300 100c165.573 0 299.998 200 299.998 200S465.573 500 300 500C134.426 500 0 300 0 300s134.426-200 300-200Zm0 15c-62.865 0-120.822 30.817-167.952 67.266C74.674 226.638 33.192 279.778 18.393 300c14.8 20.223 56.28 73.362 113.655 117.734C179.178 454.185 237.135 485 300 485c62.864 0 120.82-30.816 167.951-67.265 57.374-44.372 98.856-97.511 113.655-117.734-14.8-20.223-56.281-73.363-113.655-117.735C420.821 145.817 362.864 115 300 115Z"/><g transform="translate(-149.11 -119.993) scale(1.38336)"><circle cx="324.65" cy="303.602" r="79.514"/><path d="M324.65 224.088c43.885 0 79.514 35.629 79.514 79.514s-35.629 79.514-79.514 79.514-79.514-35.629-79.514-79.514 35.629-79.514 79.514-79.514Zm0 10.843c-37.9 0-68.67 30.771-68.67 68.671 0 37.901 30.77 68.671 68.67 68.671 37.901 0 68.671-30.77 68.671-68.671 0-37.9-30.77-68.671-68.671-68.671Z"/></g><path d="M10.434 300.571c190.521-172.683 384.251-172.588 581.207 1.175" style="fill:none;stroke:#000;stroke-width:13.81px" transform="matrix(.99444 0 0 1.17032 -.725 -51.553)"/><path d="m107.254 188.725-47.123-54.591" style="fill:none;stroke:#000;stroke-width:15px"/><path d="m107.254 188.725-47.123-54.591" style="fill:none;stroke:#000;stroke-width:15px" transform="matrix(-1 0 0 1 616.744 20.355)"/><path d="m107.254 188.725-47.123-54.591" style="fill:none;stroke:#000;stroke-width:15px" transform="rotate(9.497 528.66 699.91)"/><path d="m107.254 188.725-47.123-54.591" style="fill:none;stroke:#000;stroke-width:15px" transform="scale(-1 1) rotate(9.497 182.047 -2920.717)"/></svg>